G04 #@! TF.GenerationSoftware,KiCad,Pcbnew,(5.99.0-8941-ge2f8b1a4b1)*
G04 #@! TF.CreationDate,2021-03-10T18:45:48+13:00*
G04 #@! TF.ProjectId,diyBMS-Leaf,64697942-4d53-42d4-9c65-61662e6b6963,2.01*
G04 #@! TF.SameCoordinates,Original*
G04 #@! TF.FileFunction,Copper,L2,Bot*
G04 #@! TF.FilePolarity,Positive*
%FSLAX46Y46*%
G04 Gerber Fmt 4.6, Leading zero omitted, Abs format (unit mm)*
G04 Created by KiCad (PCBNEW (5.99.0-8941-ge2f8b1a4b1)) date 2021-03-10 18:45:48*
%MOMM*%
%LPD*%
G01*
G04 APERTURE LIST*
G04 Aperture macros list*
%AMRoundRect*
0 Rectangle with rounded corners*
0 $1 Rounding radius*
0 $2 $3 $4 $5 $6 $7 $8 $9 X,Y pos of 4 corners*
0 Add a 4 corners polygon primitive as box body*
4,1,4,$2,$3,$4,$5,$6,$7,$8,$9,$2,$3,0*
0 Add four circle primitives for the rounded corners*
1,1,$1+$1,$2,$3*
1,1,$1+$1,$4,$5*
1,1,$1+$1,$6,$7*
1,1,$1+$1,$8,$9*
0 Add four rect primitives between the rounded corners*
20,1,$1+$1,$2,$3,$4,$5,0*
20,1,$1+$1,$4,$5,$6,$7,0*
20,1,$1+$1,$6,$7,$8,$9,0*
20,1,$1+$1,$8,$9,$2,$3,0*%
G04 Aperture macros list end*
G04 #@! TA.AperFunction,ComponentPad*
%ADD10C,0.900000*%
G04 #@! TD*
G04 #@! TA.AperFunction,ComponentPad*
%ADD11C,16.000000*%
G04 #@! TD*
G04 #@! TA.AperFunction,ComponentPad*
%ADD12RoundRect,0.250000X0.350000X0.625000X-0.350000X0.625000X-0.350000X-0.625000X0.350000X-0.625000X0*%
G04 #@! TD*
G04 #@! TA.AperFunction,ComponentPad*
%ADD13O,1.200000X1.750000*%
G04 #@! TD*
G04 #@! TA.AperFunction,ComponentPad*
%ADD14RoundRect,0.250000X-0.350000X-0.625000X0.350000X-0.625000X0.350000X0.625000X-0.350000X0.625000X0*%
G04 #@! TD*
G04 #@! TA.AperFunction,ComponentPad*
%ADD15R,1.700000X1.700000*%
G04 #@! TD*
G04 #@! TA.AperFunction,ComponentPad*
%ADD16O,1.700000X1.700000*%
G04 #@! TD*
G04 #@! TA.AperFunction,ViaPad*
%ADD17C,0.800000*%
G04 #@! TD*
G04 #@! TA.AperFunction,ViaPad*
%ADD18C,1.000000*%
G04 #@! TD*
G04 #@! TA.AperFunction,Conductor*
%ADD19C,0.250000*%
G04 #@! TD*
G04 #@! TA.AperFunction,Conductor*
%ADD20C,0.500000*%
G04 #@! TD*
G04 APERTURE END LIST*
D10*
X115500000Y-97875000D03*
X120375000Y-93000000D03*
X118947146Y-89552854D03*
X118947146Y-96447146D03*
X112052854Y-96447146D03*
X112052854Y-89552854D03*
X115500000Y-88125000D03*
D11*
X115500000Y-93000000D03*
D10*
X110625000Y-93000000D03*
X186052854Y-89552854D03*
X186052854Y-96447146D03*
D11*
X189500000Y-93000000D03*
D10*
X192947146Y-96447146D03*
X189500000Y-97875000D03*
X192947146Y-89552854D03*
X184625000Y-93000000D03*
X189500000Y-88125000D03*
X194375000Y-93000000D03*
X155947146Y-96447146D03*
X152500000Y-97875000D03*
X149052854Y-89552854D03*
X157375000Y-93000000D03*
X147625000Y-93000000D03*
D11*
X152500000Y-93000000D03*
D10*
X149052854Y-96447146D03*
X152500000Y-88125000D03*
X155947146Y-89552854D03*
D12*
X100300000Y-93950000D03*
D13*
X98300000Y-93950000D03*
D14*
X218700000Y-82000000D03*
D13*
X220700000Y-82000000D03*
D14*
X92900000Y-82050000D03*
D13*
X94900000Y-82050000D03*
D15*
X215575000Y-90175000D03*
D16*
X215575000Y-87635000D03*
X218115000Y-90175000D03*
X218115000Y-87635000D03*
X220655000Y-90175000D03*
X220655000Y-87635000D03*
D14*
X205000000Y-92100000D03*
D13*
X207000000Y-92100000D03*
D15*
X88500000Y-95750000D03*
D16*
X88500000Y-98290000D03*
X85960000Y-95750000D03*
X85960000Y-98290000D03*
X83420000Y-95750000D03*
X83420000Y-98290000D03*
D17*
X217300000Y-98700000D03*
X225600000Y-83600000D03*
X245700000Y-87900000D03*
X211300000Y-93300000D03*
X102400000Y-81100000D03*
X95000000Y-90600000D03*
D18*
X47000000Y-80000000D03*
X49000000Y-80000000D03*
X51000000Y-80000000D03*
X53000000Y-80000000D03*
X55000000Y-80000000D03*
X57000000Y-80000000D03*
X59000000Y-80000000D03*
X61000000Y-80000000D03*
X63000000Y-80000000D03*
X65000000Y-80000000D03*
X67000000Y-80000000D03*
X71900000Y-80200000D03*
X69400000Y-80000000D03*
X45000000Y-82000000D03*
X45000000Y-84000000D03*
X45000000Y-86000000D03*
X45000000Y-88000000D03*
X45000000Y-90000000D03*
X45000000Y-92000000D03*
X45000000Y-94000000D03*
X45000000Y-96000000D03*
X45000000Y-98000000D03*
X45000000Y-102000000D03*
X45000000Y-100000000D03*
X45000000Y-104000000D03*
X45000000Y-106000000D03*
X47000000Y-106000000D03*
X49000000Y-106000000D03*
X51000000Y-106000000D03*
X53000000Y-106000000D03*
X55000000Y-106000000D03*
X57000000Y-106000000D03*
X59000000Y-106000000D03*
X61000000Y-106000000D03*
X63000000Y-106000000D03*
X65000000Y-106000000D03*
X67000000Y-106000000D03*
X70100000Y-106000000D03*
X45000000Y-80000000D03*
D17*
X98600000Y-97800000D03*
X104800000Y-80700000D03*
X96500000Y-97800000D03*
X97600000Y-98700000D03*
X96100000Y-100000000D03*
X84200000Y-83500000D03*
X97300000Y-103900000D03*
X79300000Y-101200000D03*
X81700000Y-97400000D03*
X82500000Y-90800000D03*
X92200000Y-86700000D03*
X58500000Y-89700000D03*
X85800000Y-87850000D03*
X89408000Y-93472000D03*
X79900000Y-91900000D03*
X58500000Y-88000000D03*
X86900000Y-86350000D03*
X224200000Y-94100000D03*
X214692000Y-92528000D03*
X205800000Y-101900000D03*
X229800000Y-100900000D03*
X225800000Y-101300000D03*
X231000000Y-100900000D03*
X231000000Y-98300000D03*
X231000000Y-103500000D03*
X209600000Y-98700000D03*
X210300000Y-86600000D03*
X230400000Y-99500000D03*
X209600000Y-99900000D03*
X229800000Y-103500000D03*
X205800000Y-100700000D03*
X210300000Y-88600000D03*
X230300000Y-94800000D03*
X208100000Y-79300000D03*
X205800000Y-103200000D03*
X229800000Y-98300000D03*
X231000000Y-102200000D03*
X216100000Y-102100000D03*
X209600000Y-97500000D03*
X228400000Y-97100000D03*
X229800000Y-102200000D03*
X229800000Y-97100000D03*
X229800000Y-96000000D03*
X226600000Y-81200000D03*
X228400000Y-98300000D03*
X228300000Y-101300000D03*
X231000000Y-95900000D03*
X231000000Y-97100000D03*
X245700000Y-89500000D03*
X218200000Y-99500000D03*
X222400000Y-88600000D03*
D19*
X229300000Y-92500000D02*
X225200000Y-96600000D01*
X233100000Y-92500000D02*
X229500000Y-92500000D01*
X229500000Y-92500000D02*
X229300000Y-92500000D01*
X229500000Y-87700000D02*
X229500000Y-92500000D01*
X225200000Y-96600000D02*
X219400000Y-96600000D01*
X245600000Y-87800000D02*
X237800000Y-87800000D01*
X245700000Y-87900000D02*
X245700000Y-87800000D01*
X225600000Y-83600000D02*
X225600000Y-83800000D01*
X237800000Y-87800000D02*
X233100000Y-92500000D01*
X245700000Y-87900000D02*
X245600000Y-87800000D01*
X219400000Y-96600000D02*
X217300000Y-98700000D01*
X225600000Y-83800000D02*
X229500000Y-87700000D01*
X211200000Y-93400000D02*
X206600000Y-93400000D01*
X206600000Y-93400000D02*
X205300000Y-92100000D01*
X211300000Y-93300000D02*
X211200000Y-93400000D01*
X102400000Y-82100000D02*
X102400000Y-81100000D01*
X95000000Y-90600000D02*
X95000000Y-89500000D01*
X95000000Y-89500000D02*
X102400000Y-82100000D01*
X83420000Y-95750000D02*
X83350000Y-95750000D01*
X83350000Y-95750000D02*
X81700000Y-97400000D01*
X88500000Y-86800000D02*
X84500000Y-90800000D01*
X92100000Y-86800000D02*
X88500000Y-86800000D01*
X92200000Y-86700000D02*
X92100000Y-86800000D01*
X84500000Y-90800000D02*
X82500000Y-90800000D01*
X93600000Y-82125000D02*
X93600000Y-90650000D01*
X88500000Y-95750000D02*
X93500000Y-90750000D01*
X93100000Y-81625000D02*
X93600000Y-82125000D01*
X93600000Y-90650000D02*
X93500000Y-90750000D01*
X58500000Y-89700000D02*
X58700000Y-89900000D01*
X68800000Y-93400000D02*
X74700000Y-93400000D01*
X58700000Y-89900000D02*
X65300000Y-89900000D01*
X65300000Y-89900000D02*
X68800000Y-93400000D01*
X74700000Y-93400000D02*
X75300000Y-92800000D01*
X80250000Y-87850000D02*
X75300000Y-92800000D01*
X85800000Y-87850000D02*
X80250000Y-87850000D01*
X75300000Y-92800000D02*
X75160000Y-92940000D01*
X85800000Y-87850000D02*
X85110000Y-87850000D01*
D20*
X79900000Y-91900000D02*
X81472000Y-93472000D01*
X81472000Y-93472000D02*
X89408000Y-93472000D01*
D19*
X79900000Y-91900000D02*
X79900000Y-91700000D01*
X58500000Y-88000000D02*
X59200000Y-88700000D01*
X80450000Y-86350000D02*
X86900000Y-86350000D01*
X74200000Y-92600000D02*
X80450000Y-86350000D01*
X69200000Y-92600000D02*
X74200000Y-92600000D01*
X65300000Y-88700000D02*
X69200000Y-92600000D01*
X59200000Y-88700000D02*
X65300000Y-88700000D01*
X224200000Y-94100000D02*
X224200000Y-94300000D01*
D20*
X224200000Y-94100000D02*
X222628000Y-92528000D01*
X222628000Y-92528000D02*
X214692000Y-92528000D01*
D19*
X245700000Y-89500000D02*
X245600000Y-89600000D01*
X220500000Y-97200000D02*
X218200000Y-99500000D01*
X245600000Y-89600000D02*
X237200000Y-89600000D01*
X233600000Y-93200000D02*
X229800000Y-93200000D01*
X237200000Y-89600000D02*
X233600000Y-93200000D01*
X229800000Y-93200000D02*
X225800000Y-97200000D01*
X225800000Y-97200000D02*
X220500000Y-97200000D01*
X216900000Y-83800000D02*
X216900000Y-89100000D01*
X216900000Y-89100000D02*
X215825000Y-90175000D01*
X218700000Y-82000000D02*
X216900000Y-83800000D01*
X215825000Y-90175000D02*
X215575000Y-90175000D01*
X220750000Y-90250000D02*
X222400000Y-88600000D01*
X220680000Y-90250000D02*
X220750000Y-90250000D01*
G04 #@! TA.AperFunction,Conductor*
G36*
X105142121Y-78528002D02*
G01*
X105188614Y-78581658D01*
X105200000Y-78634000D01*
X105200000Y-107366000D01*
X105179998Y-107434121D01*
X105126342Y-107480614D01*
X105074000Y-107492000D01*
X45082621Y-107492000D01*
X45060973Y-107490126D01*
X45052321Y-107488617D01*
X45052320Y-107488617D01*
X45047527Y-107487781D01*
X45042668Y-107487692D01*
X45042663Y-107487692D01*
X44932311Y-107485682D01*
X44925620Y-107485382D01*
X44909117Y-107484202D01*
X44880454Y-107482152D01*
X44871550Y-107481195D01*
X44732990Y-107461272D01*
X44705955Y-107457385D01*
X44697108Y-107455789D01*
X44670756Y-107450056D01*
X44662072Y-107447840D01*
X44565360Y-107419443D01*
X44501535Y-107400702D01*
X44493002Y-107397862D01*
X44467767Y-107388450D01*
X44459457Y-107385008D01*
X44307258Y-107315501D01*
X44299215Y-107311475D01*
X44275583Y-107298571D01*
X44267848Y-107293981D01*
X44182196Y-107238937D01*
X44127104Y-107203532D01*
X44119729Y-107198411D01*
X44098147Y-107182255D01*
X44091147Y-107176614D01*
X43964716Y-107067063D01*
X43958133Y-107060933D01*
X43939068Y-107041868D01*
X43932938Y-107035285D01*
X43823390Y-106908859D01*
X43817749Y-106901859D01*
X43801580Y-106880260D01*
X43796472Y-106872902D01*
X43706021Y-106732156D01*
X43701431Y-106724421D01*
X43688521Y-106700778D01*
X43684495Y-106692735D01*
X43614994Y-106540549D01*
X43611552Y-106532238D01*
X43602135Y-106506989D01*
X43599295Y-106498457D01*
X43552169Y-106337962D01*
X43549945Y-106329247D01*
X43544212Y-106302894D01*
X43542614Y-106294041D01*
X43518807Y-106128451D01*
X43517846Y-106119510D01*
X43514618Y-106074383D01*
X43514318Y-106067688D01*
X43512361Y-105960233D01*
X43512361Y-105960228D01*
X43512279Y-105955751D01*
X43509618Y-105939309D01*
X43508000Y-105919179D01*
X43508000Y-95969622D01*
X69491746Y-95969622D01*
X69491984Y-95970454D01*
X69492000Y-95970692D01*
X69492000Y-104227622D01*
X69491998Y-104228392D01*
X69491746Y-104269622D01*
X69494212Y-104278250D01*
X69494212Y-104278251D01*
X69499859Y-104298013D01*
X69503436Y-104314770D01*
X69504303Y-104320820D01*
X69507620Y-104343982D01*
X69511335Y-104352152D01*
X69511336Y-104352156D01*
X69518224Y-104367305D01*
X69524673Y-104384833D01*
X69529248Y-104400842D01*
X69529251Y-104400849D01*
X69531716Y-104409474D01*
X69547472Y-104434445D01*
X69555605Y-104449519D01*
X69567822Y-104476389D01*
X69584550Y-104495803D01*
X69595654Y-104510810D01*
X69609331Y-104532486D01*
X69621344Y-104543095D01*
X69631453Y-104552023D01*
X69643500Y-104564219D01*
X69656905Y-104579777D01*
X69656909Y-104579780D01*
X69662766Y-104586578D01*
X69670295Y-104591458D01*
X69670296Y-104591459D01*
X69684271Y-104600517D01*
X69699145Y-104611807D01*
X69718351Y-104628769D01*
X69745077Y-104641317D01*
X69760048Y-104649633D01*
X69784821Y-104665690D01*
X69793425Y-104668263D01*
X69793427Y-104668264D01*
X69809377Y-104673034D01*
X69826822Y-104679696D01*
X69841887Y-104686769D01*
X69841889Y-104686769D01*
X69850013Y-104690584D01*
X69858877Y-104691964D01*
X69858886Y-104691967D01*
X69879180Y-104695127D01*
X69895891Y-104698908D01*
X69915572Y-104704793D01*
X69915575Y-104704793D01*
X69924174Y-104707365D01*
X69933146Y-104707420D01*
X69933147Y-104707420D01*
X69956998Y-104707566D01*
X69959838Y-104707684D01*
X69961865Y-104708000D01*
X70027622Y-104708000D01*
X70028392Y-104708002D01*
X70069622Y-104708254D01*
X70070454Y-104708016D01*
X70070692Y-104708000D01*
X72027622Y-104708000D01*
X72028392Y-104708002D01*
X72069622Y-104708254D01*
X72078251Y-104705788D01*
X72098013Y-104700141D01*
X72114770Y-104696564D01*
X72135097Y-104693653D01*
X72135100Y-104693652D01*
X72143982Y-104692380D01*
X72152152Y-104688665D01*
X72152156Y-104688664D01*
X72167305Y-104681776D01*
X72184833Y-104675327D01*
X72200842Y-104670752D01*
X72200849Y-104670749D01*
X72209474Y-104668284D01*
X72234445Y-104652528D01*
X72249519Y-104644395D01*
X72276389Y-104632178D01*
X72295803Y-104615450D01*
X72310810Y-104604346D01*
X72332486Y-104590669D01*
X72352026Y-104568544D01*
X72364219Y-104556500D01*
X72379777Y-104543095D01*
X72379780Y-104543091D01*
X72386578Y-104537234D01*
X72400517Y-104515729D01*
X72411807Y-104500855D01*
X72422826Y-104488378D01*
X72428769Y-104481649D01*
X72441317Y-104454923D01*
X72449633Y-104439952D01*
X72465690Y-104415179D01*
X72468264Y-104406573D01*
X72473034Y-104390623D01*
X72479696Y-104373178D01*
X72486769Y-104358113D01*
X72486769Y-104358111D01*
X72490584Y-104349987D01*
X72491964Y-104341123D01*
X72491967Y-104341114D01*
X72495127Y-104320820D01*
X72498908Y-104304109D01*
X72504793Y-104284428D01*
X72504793Y-104284425D01*
X72507365Y-104275826D01*
X72507566Y-104243002D01*
X72507684Y-104240162D01*
X72508000Y-104238135D01*
X72508000Y-104172378D01*
X72508002Y-104171608D01*
X72508239Y-104132817D01*
X72508254Y-104130378D01*
X72508016Y-104129546D01*
X72508000Y-104129308D01*
X72508000Y-95872378D01*
X72508002Y-95871608D01*
X72508037Y-95865939D01*
X72508254Y-95830378D01*
X72504023Y-95815572D01*
X72500141Y-95801987D01*
X72496564Y-95785230D01*
X72493653Y-95764903D01*
X72493652Y-95764900D01*
X72492380Y-95756018D01*
X72488665Y-95747848D01*
X72488664Y-95747844D01*
X72481776Y-95732695D01*
X72475327Y-95715167D01*
X72470752Y-95699158D01*
X72470749Y-95699151D01*
X72468284Y-95690526D01*
X72452528Y-95665555D01*
X72444395Y-95650481D01*
X72432178Y-95623611D01*
X72415450Y-95604197D01*
X72404346Y-95589190D01*
X72390669Y-95567514D01*
X72368544Y-95547974D01*
X72356500Y-95535781D01*
X72343095Y-95520223D01*
X72343091Y-95520220D01*
X72337234Y-95513422D01*
X72315729Y-95499483D01*
X72300855Y-95488193D01*
X72288378Y-95477174D01*
X72281649Y-95471231D01*
X72254923Y-95458683D01*
X72239952Y-95450367D01*
X72215179Y-95434310D01*
X72206575Y-95431737D01*
X72206573Y-95431736D01*
X72190623Y-95426966D01*
X72173178Y-95420304D01*
X72158113Y-95413231D01*
X72158111Y-95413231D01*
X72149987Y-95409416D01*
X72141123Y-95408036D01*
X72141114Y-95408033D01*
X72120820Y-95404873D01*
X72104109Y-95401092D01*
X72084428Y-95395207D01*
X72084425Y-95395207D01*
X72075826Y-95392635D01*
X72066854Y-95392580D01*
X72066853Y-95392580D01*
X72043002Y-95392434D01*
X72040162Y-95392316D01*
X72038135Y-95392000D01*
X71972378Y-95392000D01*
X71971608Y-95391998D01*
X71971052Y-95391995D01*
X71930378Y-95391746D01*
X71929546Y-95391984D01*
X71929308Y-95392000D01*
X69972378Y-95392000D01*
X69971608Y-95391998D01*
X69971352Y-95391996D01*
X69930378Y-95391746D01*
X69921750Y-95394212D01*
X69921749Y-95394212D01*
X69901987Y-95399859D01*
X69885230Y-95403436D01*
X69864903Y-95406347D01*
X69864900Y-95406348D01*
X69856018Y-95407620D01*
X69847848Y-95411335D01*
X69847844Y-95411336D01*
X69832695Y-95418224D01*
X69815167Y-95424673D01*
X69799158Y-95429248D01*
X69799151Y-95429251D01*
X69790526Y-95431716D01*
X69765555Y-95447472D01*
X69750481Y-95455605D01*
X69723611Y-95467822D01*
X69704197Y-95484550D01*
X69689190Y-95495654D01*
X69667514Y-95509331D01*
X69661572Y-95516059D01*
X69647977Y-95531453D01*
X69635781Y-95543500D01*
X69620223Y-95556905D01*
X69620220Y-95556909D01*
X69613422Y-95562766D01*
X69608542Y-95570295D01*
X69608541Y-95570296D01*
X69599483Y-95584271D01*
X69588193Y-95599145D01*
X69571231Y-95618351D01*
X69558683Y-95645077D01*
X69550367Y-95660048D01*
X69534310Y-95684821D01*
X69531737Y-95693425D01*
X69531736Y-95693427D01*
X69526966Y-95709377D01*
X69520304Y-95726822D01*
X69509416Y-95750013D01*
X69508036Y-95758877D01*
X69508033Y-95758886D01*
X69504873Y-95779180D01*
X69501092Y-95795891D01*
X69495207Y-95815572D01*
X69492635Y-95824174D01*
X69492580Y-95833146D01*
X69492580Y-95833147D01*
X69492434Y-95856998D01*
X69492316Y-95859838D01*
X69492000Y-95861865D01*
X69492000Y-95927622D01*
X69491998Y-95928392D01*
X69491746Y-95969622D01*
X43508000Y-95969622D01*
X43508000Y-88000000D01*
X57586500Y-88000000D01*
X57587190Y-88006565D01*
X57604755Y-88173682D01*
X57606462Y-88189927D01*
X57665476Y-88371554D01*
X57760963Y-88536942D01*
X57888749Y-88678863D01*
X57894091Y-88682744D01*
X57894093Y-88682746D01*
X57983996Y-88748064D01*
X58027350Y-88804286D01*
X58033425Y-88875022D01*
X58000294Y-88937814D01*
X57983996Y-88951936D01*
X57894093Y-89017254D01*
X57894091Y-89017256D01*
X57888749Y-89021137D01*
X57884328Y-89026047D01*
X57884327Y-89026048D01*
X57795502Y-89124699D01*
X57760963Y-89163058D01*
X57665476Y-89328446D01*
X57663434Y-89334731D01*
X57635737Y-89419975D01*
X57606462Y-89510073D01*
X57605772Y-89516636D01*
X57605772Y-89516637D01*
X57587190Y-89693435D01*
X57586500Y-89700000D01*
X57606462Y-89889927D01*
X57665476Y-90071554D01*
X57668779Y-90077276D01*
X57668780Y-90077277D01*
X57688034Y-90110625D01*
X57760963Y-90236942D01*
X57888749Y-90378863D01*
X57894091Y-90382744D01*
X57894093Y-90382746D01*
X57956994Y-90428446D01*
X58043250Y-90491114D01*
X58049278Y-90493798D01*
X58049280Y-90493799D01*
X58211680Y-90566104D01*
X58217713Y-90568790D01*
X58311113Y-90588643D01*
X58398056Y-90607124D01*
X58398061Y-90607124D01*
X58404513Y-90608496D01*
X58595487Y-90608496D01*
X58601939Y-90607124D01*
X58601944Y-90607124D01*
X58688887Y-90588643D01*
X58782287Y-90568790D01*
X58788314Y-90566107D01*
X58788322Y-90566104D01*
X58837085Y-90544393D01*
X58888333Y-90533500D01*
X64985406Y-90533500D01*
X65053527Y-90553502D01*
X65074501Y-90570405D01*
X68296618Y-93792523D01*
X68303969Y-93800601D01*
X68308027Y-93806995D01*
X68313806Y-93812422D01*
X68313807Y-93812423D01*
X68356862Y-93852854D01*
X68359704Y-93855609D01*
X68380033Y-93875938D01*
X68383453Y-93878590D01*
X68392476Y-93886297D01*
X68424699Y-93916557D01*
X68431643Y-93920374D01*
X68431648Y-93920378D01*
X68442450Y-93926316D01*
X68458977Y-93937172D01*
X68474977Y-93949583D01*
X68482248Y-93952730D01*
X68482249Y-93952730D01*
X68515551Y-93967141D01*
X68526207Y-93972362D01*
X68564952Y-93993662D01*
X68572635Y-93995634D01*
X68572636Y-93995635D01*
X68584568Y-93998699D01*
X68603272Y-94005103D01*
X68614585Y-94009999D01*
X68614592Y-94010001D01*
X68621864Y-94013148D01*
X68629688Y-94014387D01*
X68629691Y-94014388D01*
X68665535Y-94020065D01*
X68677156Y-94022472D01*
X68714218Y-94031987D01*
X68719975Y-94033465D01*
X68720531Y-94033500D01*
X68740452Y-94033500D01*
X68760162Y-94035051D01*
X68772114Y-94036944D01*
X68772115Y-94036944D01*
X68779944Y-94038184D01*
X68787836Y-94037438D01*
X68823582Y-94034059D01*
X68835440Y-94033500D01*
X74621616Y-94033500D01*
X74632520Y-94034014D01*
X74639911Y-94035666D01*
X74647837Y-94035417D01*
X74647838Y-94035417D01*
X74706866Y-94033562D01*
X74710823Y-94033500D01*
X74739578Y-94033500D01*
X74743845Y-94032961D01*
X74755687Y-94032028D01*
X74787335Y-94031033D01*
X74791960Y-94030888D01*
X74799883Y-94030639D01*
X74819334Y-94024988D01*
X74838695Y-94020978D01*
X74841420Y-94020634D01*
X74850930Y-94019433D01*
X74850933Y-94019432D01*
X74858788Y-94018440D01*
X74866153Y-94015524D01*
X74866157Y-94015523D01*
X74899901Y-94002163D01*
X74911130Y-93998318D01*
X74953578Y-93985986D01*
X74960406Y-93981948D01*
X74971011Y-93975677D01*
X74988762Y-93966981D01*
X75000226Y-93962442D01*
X75000229Y-93962440D01*
X75007600Y-93959522D01*
X75043368Y-93933535D01*
X75053291Y-93927016D01*
X75054475Y-93926316D01*
X75091341Y-93904514D01*
X75091759Y-93904145D01*
X75105842Y-93890062D01*
X75120867Y-93877228D01*
X75137083Y-93865446D01*
X75165030Y-93831664D01*
X75173019Y-93822885D01*
X80475499Y-88520405D01*
X80537811Y-88486379D01*
X80564594Y-88483500D01*
X85091806Y-88483500D01*
X85159927Y-88503502D01*
X85179151Y-88519842D01*
X85179425Y-88519538D01*
X85184328Y-88523953D01*
X85188749Y-88528863D01*
X85194091Y-88532744D01*
X85194093Y-88532746D01*
X85206624Y-88541850D01*
X85343250Y-88641114D01*
X85349278Y-88643798D01*
X85349280Y-88643799D01*
X85466195Y-88695853D01*
X85520291Y-88741834D01*
X85540940Y-88809761D01*
X85521587Y-88878069D01*
X85504041Y-88900055D01*
X84274501Y-90129595D01*
X84212189Y-90163621D01*
X84185406Y-90166500D01*
X83208194Y-90166500D01*
X83140073Y-90146498D01*
X83120849Y-90130158D01*
X83120575Y-90130462D01*
X83115672Y-90126047D01*
X83111251Y-90121137D01*
X83105909Y-90117256D01*
X83105907Y-90117254D01*
X82962092Y-90012767D01*
X82962091Y-90012766D01*
X82956750Y-90008886D01*
X82950722Y-90006202D01*
X82950720Y-90006201D01*
X82788318Y-89933895D01*
X82788317Y-89933895D01*
X82782287Y-89931210D01*
X82688887Y-89911357D01*
X82601944Y-89892876D01*
X82601939Y-89892876D01*
X82595487Y-89891504D01*
X82404513Y-89891504D01*
X82398061Y-89892876D01*
X82398056Y-89892876D01*
X82311113Y-89911357D01*
X82217713Y-89931210D01*
X82211683Y-89933895D01*
X82211682Y-89933895D01*
X82049280Y-90006201D01*
X82049278Y-90006202D01*
X82043250Y-90008886D01*
X82037909Y-90012766D01*
X82037908Y-90012767D01*
X81894093Y-90117254D01*
X81894091Y-90117256D01*
X81888749Y-90121137D01*
X81760963Y-90263058D01*
X81665476Y-90428446D01*
X81663434Y-90434731D01*
X81618733Y-90572308D01*
X81606462Y-90610073D01*
X81605772Y-90616636D01*
X81605772Y-90616637D01*
X81592689Y-90741114D01*
X81586500Y-90800000D01*
X81587190Y-90806565D01*
X81604896Y-90975023D01*
X81606462Y-90989927D01*
X81665476Y-91171554D01*
X81760963Y-91336942D01*
X81765381Y-91341849D01*
X81765382Y-91341850D01*
X81881479Y-91470789D01*
X81888749Y-91478863D01*
X81894091Y-91482744D01*
X81894093Y-91482746D01*
X81949117Y-91522723D01*
X82043250Y-91591114D01*
X82049278Y-91593798D01*
X82049280Y-91593799D01*
X82211682Y-91666105D01*
X82217713Y-91668790D01*
X82311113Y-91688643D01*
X82398056Y-91707124D01*
X82398061Y-91707124D01*
X82404513Y-91708496D01*
X82595487Y-91708496D01*
X82601939Y-91707124D01*
X82601944Y-91707124D01*
X82688887Y-91688643D01*
X82782287Y-91668790D01*
X82788318Y-91666105D01*
X82950720Y-91593799D01*
X82950722Y-91593798D01*
X82956750Y-91591114D01*
X83050883Y-91522723D01*
X83105907Y-91482746D01*
X83105909Y-91482744D01*
X83111251Y-91478863D01*
X83115673Y-91473952D01*
X83120575Y-91469538D01*
X83121701Y-91470789D01*
X83175000Y-91437951D01*
X83208194Y-91433500D01*
X84421616Y-91433500D01*
X84432520Y-91434014D01*
X84439911Y-91435666D01*
X84447837Y-91435417D01*
X84447838Y-91435417D01*
X84506866Y-91433562D01*
X84510823Y-91433500D01*
X84539578Y-91433500D01*
X84543845Y-91432961D01*
X84555687Y-91432028D01*
X84587335Y-91431033D01*
X84591960Y-91430888D01*
X84599883Y-91430639D01*
X84619334Y-91424988D01*
X84638695Y-91420978D01*
X84641420Y-91420634D01*
X84650930Y-91419433D01*
X84650933Y-91419432D01*
X84658788Y-91418440D01*
X84666153Y-91415524D01*
X84666157Y-91415523D01*
X84699901Y-91402163D01*
X84711130Y-91398318D01*
X84753578Y-91385986D01*
X84760406Y-91381948D01*
X84771011Y-91375677D01*
X84788762Y-91366981D01*
X84800226Y-91362442D01*
X84800229Y-91362440D01*
X84807600Y-91359522D01*
X84843368Y-91333535D01*
X84853291Y-91327016D01*
X84891341Y-91304514D01*
X84891759Y-91304145D01*
X84905842Y-91290062D01*
X84920867Y-91277228D01*
X84937083Y-91265446D01*
X84965030Y-91231664D01*
X84973019Y-91222885D01*
X88725499Y-87470405D01*
X88787811Y-87436379D01*
X88814594Y-87433500D01*
X91623011Y-87433500D01*
X91697072Y-87457564D01*
X91725814Y-87478446D01*
X91743250Y-87491114D01*
X91749278Y-87493798D01*
X91749280Y-87493799D01*
X91911682Y-87566105D01*
X91917713Y-87568790D01*
X92002504Y-87586813D01*
X92098056Y-87607124D01*
X92098061Y-87607124D01*
X92104513Y-87608496D01*
X92295487Y-87608496D01*
X92301939Y-87607124D01*
X92301944Y-87607124D01*
X92397496Y-87586813D01*
X92482287Y-87568790D01*
X92488318Y-87566105D01*
X92650720Y-87493799D01*
X92650722Y-87493798D01*
X92656750Y-87491114D01*
X92674186Y-87478446D01*
X92766439Y-87411421D01*
X92833307Y-87387562D01*
X92902459Y-87403643D01*
X92951939Y-87454557D01*
X92966500Y-87513357D01*
X92966500Y-90335406D01*
X92946498Y-90403527D01*
X92929595Y-90424501D01*
X90362708Y-92991388D01*
X90300396Y-93025414D01*
X90229581Y-93020349D01*
X90172745Y-92977802D01*
X90164495Y-92965295D01*
X90150338Y-92940776D01*
X90147037Y-92935058D01*
X90128312Y-92914261D01*
X90023673Y-92798048D01*
X90023672Y-92798047D01*
X90019251Y-92793137D01*
X90013909Y-92789256D01*
X90013907Y-92789254D01*
X89870092Y-92684767D01*
X89870091Y-92684766D01*
X89864750Y-92680886D01*
X89858722Y-92678202D01*
X89858720Y-92678201D01*
X89696318Y-92605895D01*
X89696317Y-92605895D01*
X89690287Y-92603210D01*
X89594013Y-92582746D01*
X89509944Y-92564876D01*
X89509939Y-92564876D01*
X89503487Y-92563504D01*
X89312513Y-92563504D01*
X89306061Y-92564876D01*
X89306056Y-92564876D01*
X89221987Y-92582746D01*
X89125713Y-92603210D01*
X89119683Y-92605895D01*
X89119682Y-92605895D01*
X88957278Y-92678202D01*
X88951250Y-92680886D01*
X88945914Y-92684763D01*
X88945912Y-92684764D01*
X88939479Y-92689438D01*
X88865420Y-92713500D01*
X81838371Y-92713500D01*
X81770250Y-92693498D01*
X81749276Y-92676595D01*
X80820119Y-91747438D01*
X80789381Y-91697279D01*
X80736566Y-91534731D01*
X80734524Y-91528446D01*
X80639037Y-91363058D01*
X80631657Y-91354861D01*
X80515673Y-91226048D01*
X80515672Y-91226047D01*
X80511251Y-91221137D01*
X80505909Y-91217256D01*
X80505907Y-91217254D01*
X80362092Y-91112767D01*
X80362091Y-91112766D01*
X80356750Y-91108886D01*
X80350722Y-91106202D01*
X80350720Y-91106201D01*
X80188318Y-91033895D01*
X80188317Y-91033895D01*
X80182287Y-91031210D01*
X80079403Y-91009341D01*
X80001944Y-90992876D01*
X80001939Y-90992876D01*
X79995487Y-90991504D01*
X79804513Y-90991504D01*
X79798061Y-90992876D01*
X79798056Y-90992876D01*
X79720597Y-91009341D01*
X79617713Y-91031210D01*
X79611683Y-91033895D01*
X79611682Y-91033895D01*
X79449280Y-91106201D01*
X79449278Y-91106202D01*
X79443250Y-91108886D01*
X79437909Y-91112766D01*
X79437908Y-91112767D01*
X79294093Y-91217254D01*
X79294091Y-91217256D01*
X79288749Y-91221137D01*
X79284328Y-91226047D01*
X79284327Y-91226048D01*
X79168344Y-91354861D01*
X79160963Y-91363058D01*
X79065476Y-91528446D01*
X79006462Y-91710073D01*
X78986500Y-91900000D01*
X79006462Y-92089927D01*
X79065476Y-92271554D01*
X79160963Y-92436942D01*
X79165381Y-92441849D01*
X79165382Y-92441850D01*
X79278000Y-92566925D01*
X79288749Y-92578863D01*
X79294091Y-92582744D01*
X79294093Y-92582746D01*
X79425478Y-92678202D01*
X79443250Y-92691114D01*
X79449278Y-92693798D01*
X79449280Y-92693799D01*
X79610274Y-92765478D01*
X79617713Y-92768790D01*
X79680766Y-92782192D01*
X79743663Y-92816344D01*
X80888997Y-93961678D01*
X80901382Y-93976089D01*
X80913611Y-93992706D01*
X80919194Y-93997449D01*
X80952351Y-94025618D01*
X80959867Y-94032548D01*
X80965985Y-94038666D01*
X80989372Y-94057169D01*
X80992738Y-94059930D01*
X81048376Y-94107197D01*
X81054897Y-94110527D01*
X81059888Y-94113855D01*
X81065057Y-94117047D01*
X81070803Y-94121594D01*
X81136910Y-94152491D01*
X81140839Y-94154411D01*
X81205865Y-94187615D01*
X81212970Y-94189354D01*
X81218623Y-94191456D01*
X81224373Y-94193369D01*
X81231002Y-94196467D01*
X81238162Y-94197956D01*
X81238173Y-94197960D01*
X81302493Y-94211339D01*
X81306780Y-94212309D01*
X81372172Y-94228310D01*
X81372178Y-94228311D01*
X81377630Y-94229645D01*
X81383234Y-94229993D01*
X81383236Y-94229993D01*
X81390024Y-94230414D01*
X81393421Y-94230671D01*
X81396961Y-94230987D01*
X81404129Y-94232478D01*
X81411446Y-94232280D01*
X81459539Y-94230978D01*
X81475517Y-94230546D01*
X81478925Y-94230500D01*
X82906741Y-94230500D01*
X82974862Y-94250502D01*
X83021355Y-94304158D01*
X83031459Y-94374432D01*
X83001965Y-94439012D01*
X82953022Y-94473692D01*
X82813740Y-94528697D01*
X82616631Y-94648306D01*
X82612601Y-94651803D01*
X82485280Y-94762286D01*
X82442492Y-94799415D01*
X82439109Y-94803541D01*
X82439105Y-94803545D01*
X82366768Y-94891767D01*
X82296304Y-94977705D01*
X82293666Y-94982339D01*
X82293663Y-94982344D01*
X82238950Y-95078461D01*
X82182245Y-95178077D01*
X82103578Y-95394802D01*
X82102629Y-95400051D01*
X82102628Y-95400054D01*
X82065713Y-95604197D01*
X82062551Y-95621683D01*
X82062500Y-95627023D01*
X82060462Y-95839349D01*
X82060338Y-95852233D01*
X82063512Y-95871935D01*
X82090538Y-96039728D01*
X82081623Y-96110163D01*
X82055236Y-96148860D01*
X81749497Y-96454599D01*
X81687185Y-96488625D01*
X81660402Y-96491504D01*
X81604513Y-96491504D01*
X81598061Y-96492876D01*
X81598056Y-96492876D01*
X81542097Y-96504771D01*
X81417713Y-96531210D01*
X81411683Y-96533895D01*
X81411682Y-96533895D01*
X81249280Y-96606201D01*
X81249278Y-96606202D01*
X81243250Y-96608886D01*
X81237909Y-96612766D01*
X81237908Y-96612767D01*
X81094093Y-96717254D01*
X81094091Y-96717256D01*
X81088749Y-96721137D01*
X81084328Y-96726047D01*
X81084327Y-96726048D01*
X81025435Y-96791455D01*
X80960963Y-96863058D01*
X80865476Y-97028446D01*
X80863434Y-97034731D01*
X80813535Y-97188306D01*
X80806462Y-97210073D01*
X80786500Y-97400000D01*
X80806462Y-97589927D01*
X80808502Y-97596205D01*
X80808502Y-97596206D01*
X80818469Y-97626882D01*
X80865476Y-97771554D01*
X80960963Y-97936942D01*
X81088749Y-98078863D01*
X81094091Y-98082744D01*
X81094093Y-98082746D01*
X81237908Y-98187233D01*
X81243250Y-98191114D01*
X81249278Y-98193798D01*
X81249280Y-98193799D01*
X81411682Y-98266105D01*
X81417713Y-98268790D01*
X81503628Y-98287052D01*
X81598056Y-98307124D01*
X81598061Y-98307124D01*
X81604513Y-98308496D01*
X81795487Y-98308496D01*
X81801940Y-98307124D01*
X81801953Y-98307123D01*
X81909388Y-98284286D01*
X81980178Y-98289687D01*
X82036811Y-98332503D01*
X82059123Y-98392429D01*
X82060338Y-98392233D01*
X82097002Y-98619861D01*
X82171494Y-98838056D01*
X82281685Y-99040580D01*
X82424424Y-99221644D01*
X82428389Y-99225220D01*
X82591659Y-99372489D01*
X82591665Y-99372494D01*
X82595629Y-99376069D01*
X82790406Y-99499439D01*
X83003184Y-99588228D01*
X83008387Y-99589425D01*
X83008392Y-99589426D01*
X83222678Y-99638701D01*
X83222683Y-99638702D01*
X83227881Y-99639897D01*
X83233209Y-99640200D01*
X83233212Y-99640200D01*
X83389293Y-99649063D01*
X83458071Y-99652968D01*
X83463378Y-99652368D01*
X83463380Y-99652368D01*
X83584272Y-99638701D01*
X83687173Y-99627068D01*
X83692288Y-99625587D01*
X83692292Y-99625586D01*
X83821298Y-99588228D01*
X83908635Y-99562937D01*
X84116125Y-99462409D01*
X84120463Y-99459309D01*
X84120468Y-99459306D01*
X84299370Y-99331459D01*
X84303711Y-99328357D01*
X84466030Y-99164617D01*
X84469090Y-99160255D01*
X84469095Y-99160249D01*
X84587634Y-98991271D01*
X84643130Y-98946990D01*
X84713755Y-98939743D01*
X84777088Y-98971829D01*
X84801461Y-99003410D01*
X84821685Y-99040580D01*
X84964424Y-99221644D01*
X84968389Y-99225220D01*
X85131659Y-99372489D01*
X85131665Y-99372494D01*
X85135629Y-99376069D01*
X85330406Y-99499439D01*
X85543184Y-99588228D01*
X85548387Y-99589425D01*
X85548392Y-99589426D01*
X85762678Y-99638701D01*
X85762683Y-99638702D01*
X85767881Y-99639897D01*
X85773209Y-99640200D01*
X85773212Y-99640200D01*
X85929293Y-99649063D01*
X85998071Y-99652968D01*
X86003378Y-99652368D01*
X86003380Y-99652368D01*
X86124272Y-99638701D01*
X86227173Y-99627068D01*
X86232288Y-99625587D01*
X86232292Y-99625586D01*
X86361298Y-99588228D01*
X86448635Y-99562937D01*
X86656125Y-99462409D01*
X86660463Y-99459309D01*
X86660468Y-99459306D01*
X86839370Y-99331459D01*
X86843711Y-99328357D01*
X87006030Y-99164617D01*
X87096330Y-99035895D01*
X87135375Y-98980236D01*
X87135376Y-98980234D01*
X87138439Y-98975868D01*
X87237153Y-98767508D01*
X87299349Y-98545494D01*
X87323249Y-98316176D01*
X87323500Y-98290000D01*
X87318694Y-98233360D01*
X87304458Y-98065576D01*
X87304457Y-98065572D01*
X87304007Y-98060265D01*
X87246084Y-97837098D01*
X87219137Y-97777277D01*
X87153578Y-97631743D01*
X87153577Y-97631741D01*
X87151388Y-97626882D01*
X87022627Y-97435626D01*
X86988642Y-97400000D01*
X86867161Y-97272656D01*
X86863482Y-97268799D01*
X86678504Y-97131171D01*
X86673743Y-97128751D01*
X86670425Y-97126693D01*
X86623071Y-97073796D01*
X86611832Y-97003695D01*
X86640277Y-96938645D01*
X86663564Y-96917093D01*
X86672304Y-96910847D01*
X86843711Y-96788357D01*
X86949489Y-96681653D01*
X87011652Y-96647356D01*
X87082490Y-96652113D01*
X87139510Y-96694411D01*
X87159867Y-96734860D01*
X87182904Y-96813316D01*
X87187775Y-96820895D01*
X87257051Y-96928691D01*
X87257053Y-96928694D01*
X87261923Y-96936271D01*
X87268733Y-96942172D01*
X87365569Y-97026082D01*
X87365572Y-97026084D01*
X87372381Y-97031984D01*
X87380579Y-97035728D01*
X87383989Y-97037285D01*
X87505330Y-97092700D01*
X87514245Y-97093982D01*
X87514246Y-97093982D01*
X87645552Y-97112861D01*
X87645559Y-97112862D01*
X87650000Y-97113500D01*
X89350000Y-97113500D01*
X89423079Y-97108273D01*
X89501165Y-97085345D01*
X89554670Y-97069635D01*
X89554672Y-97069634D01*
X89563316Y-97067096D01*
X89601472Y-97042574D01*
X89678691Y-96992949D01*
X89678694Y-96992947D01*
X89686271Y-96988077D01*
X89726048Y-96942172D01*
X89776082Y-96884431D01*
X89776084Y-96884428D01*
X89781984Y-96877619D01*
X89785728Y-96869421D01*
X89838958Y-96752864D01*
X89838958Y-96752863D01*
X89842700Y-96744670D01*
X89844110Y-96734861D01*
X89862861Y-96604448D01*
X89862862Y-96604441D01*
X89863500Y-96600000D01*
X89863500Y-95334594D01*
X89883502Y-95266473D01*
X89900405Y-95245499D01*
X91573142Y-93572762D01*
X97191500Y-93572762D01*
X97191500Y-94277406D01*
X97206589Y-94435558D01*
X97208277Y-94441312D01*
X97253176Y-94594357D01*
X97266131Y-94638518D01*
X97268877Y-94643850D01*
X97268878Y-94643852D01*
X97351126Y-94803545D01*
X97362978Y-94826558D01*
X97493635Y-94992891D01*
X97498165Y-94996822D01*
X97498166Y-94996823D01*
X97648856Y-95127587D01*
X97648861Y-95127591D01*
X97653387Y-95131518D01*
X97836471Y-95237434D01*
X97842147Y-95239405D01*
X98030607Y-95304850D01*
X98030610Y-95304851D01*
X98036281Y-95306820D01*
X98158617Y-95324558D01*
X98239666Y-95336310D01*
X98239669Y-95336310D01*
X98245606Y-95337171D01*
X98456894Y-95327391D01*
X98643562Y-95282404D01*
X98656687Y-95279241D01*
X98656689Y-95279240D01*
X98662520Y-95277835D01*
X98667978Y-95275353D01*
X98667982Y-95275352D01*
X98784776Y-95222249D01*
X98855066Y-95190290D01*
X99027584Y-95067914D01*
X99045392Y-95049312D01*
X99067685Y-95026024D01*
X99119106Y-94972308D01*
X99180660Y-94936932D01*
X99251569Y-94940451D01*
X99309320Y-94981747D01*
X99315495Y-94990354D01*
X99364269Y-95064747D01*
X99492645Y-95186358D01*
X99645555Y-95275175D01*
X99814796Y-95326433D01*
X99821236Y-95327008D01*
X99821237Y-95327008D01*
X99891185Y-95333251D01*
X99891191Y-95333251D01*
X99893978Y-95333500D01*
X100692886Y-95333500D01*
X100788106Y-95322398D01*
X100818371Y-95318870D01*
X100818372Y-95318870D01*
X100825643Y-95318022D01*
X100832521Y-95315526D01*
X100832523Y-95315525D01*
X100984985Y-95260184D01*
X100991864Y-95257687D01*
X101139747Y-95160731D01*
X101261358Y-95032355D01*
X101350175Y-94879445D01*
X101401433Y-94710204D01*
X101402008Y-94703763D01*
X101408251Y-94633815D01*
X101408251Y-94633809D01*
X101408500Y-94631022D01*
X101408500Y-93282114D01*
X101393022Y-93149357D01*
X101332687Y-92983136D01*
X101235731Y-92835253D01*
X101107355Y-92713642D01*
X100954445Y-92624825D01*
X100785204Y-92573567D01*
X100778764Y-92572992D01*
X100778763Y-92572992D01*
X100708815Y-92566749D01*
X100708809Y-92566749D01*
X100706022Y-92566500D01*
X99907114Y-92566500D01*
X99811894Y-92577602D01*
X99781629Y-92581130D01*
X99781628Y-92581130D01*
X99774357Y-92581978D01*
X99767479Y-92584474D01*
X99767477Y-92584475D01*
X99656315Y-92624825D01*
X99608136Y-92642313D01*
X99460253Y-92739269D01*
X99338642Y-92867645D01*
X99334965Y-92873976D01*
X99320019Y-92899707D01*
X99268508Y-92948566D01*
X99198760Y-92961820D01*
X99132918Y-92935261D01*
X99111984Y-92914261D01*
X99110075Y-92911831D01*
X99110070Y-92911826D01*
X99106365Y-92907109D01*
X99068183Y-92873976D01*
X98951144Y-92772413D01*
X98951139Y-92772409D01*
X98946613Y-92768482D01*
X98763529Y-92662566D01*
X98698016Y-92639816D01*
X98569393Y-92595150D01*
X98569390Y-92595149D01*
X98563719Y-92593180D01*
X98428452Y-92573567D01*
X98360334Y-92563690D01*
X98360331Y-92563690D01*
X98354394Y-92562829D01*
X98143106Y-92572609D01*
X98021824Y-92601838D01*
X97943313Y-92620759D01*
X97943311Y-92620760D01*
X97937480Y-92622165D01*
X97932022Y-92624647D01*
X97932018Y-92624648D01*
X97884340Y-92646326D01*
X97744934Y-92709710D01*
X97572416Y-92832086D01*
X97568267Y-92836420D01*
X97568266Y-92836421D01*
X97430302Y-92980540D01*
X97430298Y-92980545D01*
X97426152Y-92984876D01*
X97422900Y-92989912D01*
X97422898Y-92989915D01*
X97314670Y-93157531D01*
X97311418Y-93162568D01*
X97232354Y-93358749D01*
X97231206Y-93364630D01*
X97231204Y-93364635D01*
X97209309Y-93476754D01*
X97191814Y-93566341D01*
X97191500Y-93572762D01*
X91573142Y-93572762D01*
X93975938Y-91169966D01*
X93992529Y-91153376D01*
X94000602Y-91146031D01*
X94006995Y-91141973D01*
X94049928Y-91096254D01*
X94111141Y-91060289D01*
X94182081Y-91063126D01*
X94240225Y-91103867D01*
X94250896Y-91119506D01*
X94260963Y-91136942D01*
X94265381Y-91141849D01*
X94265382Y-91141850D01*
X94384327Y-91273952D01*
X94388749Y-91278863D01*
X94394091Y-91282744D01*
X94394093Y-91282746D01*
X94530634Y-91381948D01*
X94543250Y-91391114D01*
X94549278Y-91393798D01*
X94549280Y-91393799D01*
X94711682Y-91466105D01*
X94717713Y-91468790D01*
X94811113Y-91488643D01*
X94898056Y-91507124D01*
X94898061Y-91507124D01*
X94904513Y-91508496D01*
X95095487Y-91508496D01*
X95101939Y-91507124D01*
X95101944Y-91507124D01*
X95188887Y-91488643D01*
X95282287Y-91468790D01*
X95288318Y-91466105D01*
X95450720Y-91393799D01*
X95450722Y-91393798D01*
X95456750Y-91391114D01*
X95469366Y-91381948D01*
X95605907Y-91282746D01*
X95605909Y-91282744D01*
X95611251Y-91278863D01*
X95615673Y-91273952D01*
X95734618Y-91141850D01*
X95734619Y-91141849D01*
X95739037Y-91136942D01*
X95825850Y-90986578D01*
X95831220Y-90977277D01*
X95831221Y-90977276D01*
X95834524Y-90971554D01*
X95887187Y-90809474D01*
X95891498Y-90796206D01*
X95891498Y-90796205D01*
X95893538Y-90789927D01*
X95903199Y-90698013D01*
X95912810Y-90606565D01*
X95913500Y-90600000D01*
X95906439Y-90532817D01*
X95894228Y-90416637D01*
X95894228Y-90416636D01*
X95893538Y-90410073D01*
X95834524Y-90228446D01*
X95739037Y-90063058D01*
X95665864Y-89981791D01*
X95635146Y-89917784D01*
X95633500Y-89897481D01*
X95633500Y-89814594D01*
X95653502Y-89746473D01*
X95670405Y-89725499D01*
X99216883Y-86179022D01*
X102792523Y-82603382D01*
X102800601Y-82596031D01*
X102806995Y-82591973D01*
X102852855Y-82543137D01*
X102855609Y-82540296D01*
X102875938Y-82519967D01*
X102878590Y-82516547D01*
X102886297Y-82507524D01*
X102911130Y-82481080D01*
X102916557Y-82475301D01*
X102920374Y-82468357D01*
X102920378Y-82468352D01*
X102926316Y-82457550D01*
X102937172Y-82441023D01*
X102944724Y-82431287D01*
X102949583Y-82425023D01*
X102967142Y-82384447D01*
X102972363Y-82373790D01*
X102974166Y-82370511D01*
X102993662Y-82335048D01*
X102995635Y-82327364D01*
X102998699Y-82315432D01*
X103005103Y-82296728D01*
X103009999Y-82285415D01*
X103010001Y-82285408D01*
X103013148Y-82278136D01*
X103016154Y-82259160D01*
X103020065Y-82234465D01*
X103022472Y-82222844D01*
X103031987Y-82185782D01*
X103031987Y-82185781D01*
X103033465Y-82180025D01*
X103033500Y-82179469D01*
X103033500Y-82159548D01*
X103035051Y-82139838D01*
X103036944Y-82127886D01*
X103036944Y-82127885D01*
X103038184Y-82120056D01*
X103034059Y-82076417D01*
X103033500Y-82064560D01*
X103033500Y-81802519D01*
X103053502Y-81734398D01*
X103065864Y-81718209D01*
X103134618Y-81641850D01*
X103134619Y-81641849D01*
X103139037Y-81636942D01*
X103234524Y-81471554D01*
X103268760Y-81366185D01*
X103291498Y-81296206D01*
X103291498Y-81296205D01*
X103293538Y-81289927D01*
X103313500Y-81100000D01*
X103304233Y-81011827D01*
X103294228Y-80916637D01*
X103294228Y-80916636D01*
X103293538Y-80910073D01*
X103270533Y-80839269D01*
X103244970Y-80760595D01*
X103234524Y-80728446D01*
X103139037Y-80563058D01*
X103011251Y-80421137D01*
X103005909Y-80417256D01*
X103005907Y-80417254D01*
X102862092Y-80312767D01*
X102862091Y-80312766D01*
X102856750Y-80308886D01*
X102850722Y-80306202D01*
X102850720Y-80306201D01*
X102688318Y-80233895D01*
X102688317Y-80233895D01*
X102682287Y-80231210D01*
X102588887Y-80211357D01*
X102501944Y-80192876D01*
X102501939Y-80192876D01*
X102495487Y-80191504D01*
X102304513Y-80191504D01*
X102298061Y-80192876D01*
X102298056Y-80192876D01*
X102211113Y-80211357D01*
X102117713Y-80231210D01*
X102111683Y-80233895D01*
X102111682Y-80233895D01*
X101949280Y-80306201D01*
X101949278Y-80306202D01*
X101943250Y-80308886D01*
X101937909Y-80312766D01*
X101937908Y-80312767D01*
X101794093Y-80417254D01*
X101794091Y-80417256D01*
X101788749Y-80421137D01*
X101660963Y-80563058D01*
X101565476Y-80728446D01*
X101555030Y-80760595D01*
X101529468Y-80839269D01*
X101506462Y-80910073D01*
X101505772Y-80916636D01*
X101505772Y-80916637D01*
X101495767Y-81011827D01*
X101486500Y-81100000D01*
X101506462Y-81289927D01*
X101508502Y-81296205D01*
X101508502Y-81296206D01*
X101531240Y-81366185D01*
X101565476Y-81471554D01*
X101660963Y-81636942D01*
X101665381Y-81641849D01*
X101665382Y-81641850D01*
X101726028Y-81709204D01*
X101756745Y-81773211D01*
X101747981Y-81843665D01*
X101721487Y-81882609D01*
X94607487Y-88996609D01*
X94599399Y-89003969D01*
X94593005Y-89008027D01*
X94587580Y-89013804D01*
X94547131Y-89056878D01*
X94544376Y-89059720D01*
X94524062Y-89080034D01*
X94521417Y-89083445D01*
X94513713Y-89092465D01*
X94483443Y-89124699D01*
X94479626Y-89131643D01*
X94479624Y-89131645D01*
X94473682Y-89142453D01*
X94462830Y-89158974D01*
X94459062Y-89163832D01*
X94401507Y-89205400D01*
X94330615Y-89209253D01*
X94268894Y-89174168D01*
X94235939Y-89111283D01*
X94233500Y-89086609D01*
X94233500Y-83438471D01*
X94253502Y-83370350D01*
X94307158Y-83323857D01*
X94377432Y-83313753D01*
X94422593Y-83329405D01*
X94436471Y-83337434D01*
X94442147Y-83339405D01*
X94630607Y-83404850D01*
X94630610Y-83404851D01*
X94636281Y-83406820D01*
X94758617Y-83424558D01*
X94839666Y-83436310D01*
X94839669Y-83436310D01*
X94845606Y-83437171D01*
X95056894Y-83427391D01*
X95188460Y-83395683D01*
X95256687Y-83379241D01*
X95256689Y-83379240D01*
X95262520Y-83377835D01*
X95267978Y-83375353D01*
X95267982Y-83375352D01*
X95384776Y-83322249D01*
X95455066Y-83290290D01*
X95627584Y-83167914D01*
X95631734Y-83163579D01*
X95769698Y-83019460D01*
X95769702Y-83019455D01*
X95773848Y-83015124D01*
X95777167Y-83009985D01*
X95885330Y-82842469D01*
X95885331Y-82842466D01*
X95888582Y-82837432D01*
X95967646Y-82641251D01*
X95968794Y-82635370D01*
X95968796Y-82635365D01*
X96007315Y-82438117D01*
X96008186Y-82433659D01*
X96008500Y-82427238D01*
X96008500Y-81722594D01*
X95993411Y-81564442D01*
X95933869Y-81361482D01*
X95897016Y-81289927D01*
X95839768Y-81178773D01*
X95839766Y-81178770D01*
X95837022Y-81173442D01*
X95706365Y-81007109D01*
X95668183Y-80973976D01*
X95551144Y-80872413D01*
X95551139Y-80872409D01*
X95546613Y-80868482D01*
X95363529Y-80762566D01*
X95283373Y-80734731D01*
X95169393Y-80695150D01*
X95169390Y-80695149D01*
X95163719Y-80693180D01*
X95028452Y-80673567D01*
X94960334Y-80663690D01*
X94960331Y-80663690D01*
X94954394Y-80662829D01*
X94743106Y-80672609D01*
X94611540Y-80704317D01*
X94543313Y-80720759D01*
X94543311Y-80720760D01*
X94537480Y-80722165D01*
X94532022Y-80724647D01*
X94532018Y-80724648D01*
X94484340Y-80746326D01*
X94344934Y-80809710D01*
X94172416Y-80932086D01*
X94089930Y-81018253D01*
X94080895Y-81027691D01*
X94019340Y-81063068D01*
X93948431Y-81059549D01*
X93890680Y-81018253D01*
X93884505Y-81009646D01*
X93839743Y-80941372D01*
X93839742Y-80941371D01*
X93835731Y-80935253D01*
X93707355Y-80813642D01*
X93554445Y-80724825D01*
X93385204Y-80673567D01*
X93378764Y-80672992D01*
X93378763Y-80672992D01*
X93308815Y-80666749D01*
X93308809Y-80666749D01*
X93306022Y-80666500D01*
X92507114Y-80666500D01*
X92411894Y-80677602D01*
X92381629Y-80681130D01*
X92381628Y-80681130D01*
X92374357Y-80681978D01*
X92367479Y-80684474D01*
X92367477Y-80684475D01*
X92256315Y-80724825D01*
X92208136Y-80742313D01*
X92060253Y-80839269D01*
X91938642Y-80967645D01*
X91849825Y-81120555D01*
X91798567Y-81289796D01*
X91791500Y-81368978D01*
X91791500Y-82717886D01*
X91806978Y-82850643D01*
X91867313Y-83016864D01*
X91964269Y-83164747D01*
X92092645Y-83286358D01*
X92245555Y-83375175D01*
X92414796Y-83426433D01*
X92421236Y-83427008D01*
X92421237Y-83427008D01*
X92491185Y-83433251D01*
X92491191Y-83433251D01*
X92493978Y-83433500D01*
X92840500Y-83433500D01*
X92908621Y-83453502D01*
X92955114Y-83507158D01*
X92966500Y-83559500D01*
X92966500Y-85886643D01*
X92946498Y-85954764D01*
X92892842Y-86001257D01*
X92822568Y-86011361D01*
X92766439Y-85988579D01*
X92662092Y-85912767D01*
X92662091Y-85912766D01*
X92656750Y-85908886D01*
X92650722Y-85906202D01*
X92650720Y-85906201D01*
X92488318Y-85833895D01*
X92488317Y-85833895D01*
X92482287Y-85831210D01*
X92388887Y-85811357D01*
X92301944Y-85792876D01*
X92301939Y-85792876D01*
X92295487Y-85791504D01*
X92104513Y-85791504D01*
X92098061Y-85792876D01*
X92098056Y-85792876D01*
X92011113Y-85811357D01*
X91917713Y-85831210D01*
X91911683Y-85833895D01*
X91911682Y-85833895D01*
X91749280Y-85906201D01*
X91749278Y-85906202D01*
X91743250Y-85908886D01*
X91737909Y-85912766D01*
X91737908Y-85912767D01*
X91594093Y-86017254D01*
X91594091Y-86017256D01*
X91588749Y-86021137D01*
X91495400Y-86124812D01*
X91434957Y-86162050D01*
X91401766Y-86166500D01*
X88578383Y-86166500D01*
X88567479Y-86165986D01*
X88560088Y-86164334D01*
X88552162Y-86164583D01*
X88552161Y-86164583D01*
X88493134Y-86166438D01*
X88489176Y-86166500D01*
X88460422Y-86166500D01*
X88456155Y-86167039D01*
X88444313Y-86167972D01*
X88412665Y-86168967D01*
X88408040Y-86169112D01*
X88400117Y-86169361D01*
X88380667Y-86175012D01*
X88361305Y-86179022D01*
X88341212Y-86181560D01*
X88307349Y-86194967D01*
X88300108Y-86197834D01*
X88288878Y-86201679D01*
X88254034Y-86211802D01*
X88254032Y-86211803D01*
X88246421Y-86214014D01*
X88231067Y-86223094D01*
X88228989Y-86224323D01*
X88211236Y-86233020D01*
X88192400Y-86240478D01*
X88185985Y-86245139D01*
X88156626Y-86266469D01*
X88146707Y-86272984D01*
X88113758Y-86292471D01*
X88113755Y-86292473D01*
X88108659Y-86295487D01*
X88108241Y-86295855D01*
X88094158Y-86309938D01*
X88079133Y-86322772D01*
X88062917Y-86334554D01*
X88035798Y-86367335D01*
X88034971Y-86368335D01*
X88026981Y-86377115D01*
X88023175Y-86380921D01*
X87960863Y-86414947D01*
X87890048Y-86409882D01*
X87833212Y-86367335D01*
X87808770Y-86304996D01*
X87794228Y-86166638D01*
X87793538Y-86160073D01*
X87782081Y-86124810D01*
X87736566Y-85984731D01*
X87734524Y-85978446D01*
X87639037Y-85813058D01*
X87583770Y-85751677D01*
X87515673Y-85676048D01*
X87515672Y-85676047D01*
X87511251Y-85671137D01*
X87505909Y-85667256D01*
X87505907Y-85667254D01*
X87362092Y-85562767D01*
X87362091Y-85562766D01*
X87356750Y-85558886D01*
X87350722Y-85556202D01*
X87350720Y-85556201D01*
X87188318Y-85483895D01*
X87188317Y-85483895D01*
X87182287Y-85481210D01*
X87088887Y-85461357D01*
X87001944Y-85442876D01*
X87001939Y-85442876D01*
X86995487Y-85441504D01*
X86804513Y-85441504D01*
X86798061Y-85442876D01*
X86798056Y-85442876D01*
X86711113Y-85461357D01*
X86617713Y-85481210D01*
X86611683Y-85483895D01*
X86611682Y-85483895D01*
X86449280Y-85556201D01*
X86449278Y-85556202D01*
X86443250Y-85558886D01*
X86437909Y-85562766D01*
X86437908Y-85562767D01*
X86294093Y-85667254D01*
X86294091Y-85667256D01*
X86288749Y-85671137D01*
X86284328Y-85676047D01*
X86279425Y-85680462D01*
X86278299Y-85679211D01*
X86225000Y-85712049D01*
X86191806Y-85716500D01*
X80528396Y-85716500D01*
X80517482Y-85715986D01*
X80510089Y-85714333D01*
X80502164Y-85714582D01*
X80502163Y-85714582D01*
X80443116Y-85716438D01*
X80439158Y-85716500D01*
X80410422Y-85716500D01*
X80406151Y-85717039D01*
X80394322Y-85717971D01*
X80350117Y-85719361D01*
X80342501Y-85721574D01*
X80342499Y-85721574D01*
X80330661Y-85725013D01*
X80311302Y-85729022D01*
X80299079Y-85730566D01*
X80299078Y-85730566D01*
X80291212Y-85731560D01*
X80283836Y-85734480D01*
X80283837Y-85734480D01*
X80250111Y-85747832D01*
X80238882Y-85751677D01*
X80204035Y-85761801D01*
X80204034Y-85761802D01*
X80196422Y-85764013D01*
X80189599Y-85768048D01*
X80178983Y-85774326D01*
X80161231Y-85783022D01*
X80142400Y-85790478D01*
X80119981Y-85806766D01*
X80106629Y-85816467D01*
X80096711Y-85822982D01*
X80058659Y-85845486D01*
X80058241Y-85845855D01*
X80044158Y-85859938D01*
X80029133Y-85872772D01*
X80012917Y-85884554D01*
X79995009Y-85906201D01*
X79984971Y-85918335D01*
X79976981Y-85927115D01*
X73974501Y-91929595D01*
X73912189Y-91963621D01*
X73885406Y-91966500D01*
X69514594Y-91966500D01*
X69446473Y-91946498D01*
X69425499Y-91929595D01*
X65803391Y-88307487D01*
X65796031Y-88299399D01*
X65791973Y-88293005D01*
X65743121Y-88247130D01*
X65740280Y-88244376D01*
X65719966Y-88224062D01*
X65716555Y-88221417D01*
X65707533Y-88213711D01*
X65681077Y-88188867D01*
X65675301Y-88183443D01*
X65668357Y-88179626D01*
X65668355Y-88179624D01*
X65657547Y-88173682D01*
X65641023Y-88162828D01*
X65631286Y-88155275D01*
X65631285Y-88155275D01*
X65625023Y-88150417D01*
X65584447Y-88132858D01*
X65573790Y-88127637D01*
X65535048Y-88106338D01*
X65527365Y-88104366D01*
X65527364Y-88104365D01*
X65515432Y-88101301D01*
X65496728Y-88094897D01*
X65485415Y-88090001D01*
X65485408Y-88089999D01*
X65478136Y-88086852D01*
X65470312Y-88085613D01*
X65470309Y-88085612D01*
X65434465Y-88079935D01*
X65422844Y-88077528D01*
X65385782Y-88068013D01*
X65385781Y-88068013D01*
X65380025Y-88066535D01*
X65379469Y-88066500D01*
X65359548Y-88066500D01*
X65339838Y-88064949D01*
X65327886Y-88063056D01*
X65327885Y-88063056D01*
X65320056Y-88061816D01*
X65312164Y-88062562D01*
X65276418Y-88065941D01*
X65264560Y-88066500D01*
X59533941Y-88066500D01*
X59465820Y-88046498D01*
X59419327Y-87992842D01*
X59408631Y-87953671D01*
X59394228Y-87816637D01*
X59394228Y-87816636D01*
X59393538Y-87810073D01*
X59334524Y-87628446D01*
X59239037Y-87463058D01*
X59210737Y-87431627D01*
X59115673Y-87326048D01*
X59115672Y-87326047D01*
X59111251Y-87321137D01*
X59105909Y-87317256D01*
X59105907Y-87317254D01*
X58962092Y-87212767D01*
X58962091Y-87212766D01*
X58956750Y-87208886D01*
X58950722Y-87206202D01*
X58950720Y-87206201D01*
X58788318Y-87133895D01*
X58788317Y-87133895D01*
X58782287Y-87131210D01*
X58688887Y-87111357D01*
X58601944Y-87092876D01*
X58601939Y-87092876D01*
X58595487Y-87091504D01*
X58404513Y-87091504D01*
X58398061Y-87092876D01*
X58398056Y-87092876D01*
X58311113Y-87111357D01*
X58217713Y-87131210D01*
X58211683Y-87133895D01*
X58211682Y-87133895D01*
X58049280Y-87206201D01*
X58049278Y-87206202D01*
X58043250Y-87208886D01*
X58037909Y-87212766D01*
X58037908Y-87212767D01*
X57894093Y-87317254D01*
X57894091Y-87317256D01*
X57888749Y-87321137D01*
X57884328Y-87326047D01*
X57884327Y-87326048D01*
X57789264Y-87431627D01*
X57760963Y-87463058D01*
X57665476Y-87628446D01*
X57606462Y-87810073D01*
X57586500Y-88000000D01*
X43508000Y-88000000D01*
X43508000Y-82369622D01*
X69541746Y-82369622D01*
X69541984Y-82370454D01*
X69542000Y-82370692D01*
X69542000Y-90627622D01*
X69541998Y-90628392D01*
X69541746Y-90669622D01*
X69544212Y-90678250D01*
X69544212Y-90678251D01*
X69549859Y-90698013D01*
X69553436Y-90714770D01*
X69554303Y-90720820D01*
X69557620Y-90743982D01*
X69561335Y-90752152D01*
X69561336Y-90752156D01*
X69568224Y-90767305D01*
X69574673Y-90784833D01*
X69579248Y-90800842D01*
X69579251Y-90800849D01*
X69581716Y-90809474D01*
X69597472Y-90834445D01*
X69605605Y-90849519D01*
X69617822Y-90876389D01*
X69634550Y-90895803D01*
X69645654Y-90910810D01*
X69659331Y-90932486D01*
X69671344Y-90943095D01*
X69681453Y-90952023D01*
X69693500Y-90964219D01*
X69706905Y-90979777D01*
X69706909Y-90979780D01*
X69712766Y-90986578D01*
X69720295Y-90991458D01*
X69720296Y-90991459D01*
X69734271Y-91000517D01*
X69749145Y-91011807D01*
X69768351Y-91028769D01*
X69795077Y-91041317D01*
X69810048Y-91049633D01*
X69834821Y-91065690D01*
X69843425Y-91068263D01*
X69843427Y-91068264D01*
X69859377Y-91073034D01*
X69876822Y-91079696D01*
X69891887Y-91086769D01*
X69891889Y-91086769D01*
X69900013Y-91090584D01*
X69908877Y-91091964D01*
X69908886Y-91091967D01*
X69929180Y-91095127D01*
X69945891Y-91098908D01*
X69965572Y-91104793D01*
X69965575Y-91104793D01*
X69974174Y-91107365D01*
X69983146Y-91107420D01*
X69983147Y-91107420D01*
X70006998Y-91107566D01*
X70009838Y-91107684D01*
X70011865Y-91108000D01*
X70077622Y-91108000D01*
X70078392Y-91108002D01*
X70119622Y-91108254D01*
X70120454Y-91108016D01*
X70120692Y-91108000D01*
X72077622Y-91108000D01*
X72078392Y-91108002D01*
X72119622Y-91108254D01*
X72128251Y-91105788D01*
X72148013Y-91100141D01*
X72164770Y-91096564D01*
X72185097Y-91093653D01*
X72185100Y-91093652D01*
X72193982Y-91092380D01*
X72202152Y-91088665D01*
X72202156Y-91088664D01*
X72217305Y-91081776D01*
X72234833Y-91075327D01*
X72250842Y-91070752D01*
X72250849Y-91070749D01*
X72259474Y-91068284D01*
X72284445Y-91052528D01*
X72299519Y-91044395D01*
X72326389Y-91032178D01*
X72345803Y-91015450D01*
X72360810Y-91004346D01*
X72382486Y-90990669D01*
X72402026Y-90968544D01*
X72414219Y-90956500D01*
X72429777Y-90943095D01*
X72429780Y-90943091D01*
X72436578Y-90937234D01*
X72450517Y-90915729D01*
X72461807Y-90900855D01*
X72472826Y-90888378D01*
X72478769Y-90881649D01*
X72491317Y-90854923D01*
X72499633Y-90839952D01*
X72515690Y-90815179D01*
X72518266Y-90806565D01*
X72523034Y-90790623D01*
X72529696Y-90773178D01*
X72536769Y-90758113D01*
X72536769Y-90758111D01*
X72540584Y-90749987D01*
X72541964Y-90741123D01*
X72541967Y-90741114D01*
X72545127Y-90720820D01*
X72548908Y-90704109D01*
X72554793Y-90684428D01*
X72554793Y-90684425D01*
X72557365Y-90675826D01*
X72557566Y-90643002D01*
X72557684Y-90640162D01*
X72558000Y-90638135D01*
X72558000Y-90572308D01*
X72558002Y-90571537D01*
X72558239Y-90532817D01*
X72558254Y-90530378D01*
X72558016Y-90529545D01*
X72558000Y-90529309D01*
X72558000Y-82272378D01*
X72558002Y-82271608D01*
X72558037Y-82265939D01*
X72558254Y-82230378D01*
X72554023Y-82215572D01*
X72550141Y-82201987D01*
X72546564Y-82185230D01*
X72543653Y-82164903D01*
X72543652Y-82164900D01*
X72542380Y-82156018D01*
X72538665Y-82147848D01*
X72538664Y-82147844D01*
X72531776Y-82132695D01*
X72525327Y-82115167D01*
X72520752Y-82099158D01*
X72520749Y-82099151D01*
X72518284Y-82090526D01*
X72502528Y-82065555D01*
X72494395Y-82050481D01*
X72482178Y-82023611D01*
X72465450Y-82004197D01*
X72454346Y-81989190D01*
X72440669Y-81967514D01*
X72418544Y-81947974D01*
X72406500Y-81935781D01*
X72393095Y-81920223D01*
X72393091Y-81920220D01*
X72387234Y-81913422D01*
X72365729Y-81899483D01*
X72350855Y-81888193D01*
X72338378Y-81877174D01*
X72331649Y-81871231D01*
X72304923Y-81858683D01*
X72289952Y-81850367D01*
X72265179Y-81834310D01*
X72256575Y-81831737D01*
X72256573Y-81831736D01*
X72240623Y-81826966D01*
X72223178Y-81820304D01*
X72208113Y-81813231D01*
X72208111Y-81813231D01*
X72199987Y-81809416D01*
X72191123Y-81808036D01*
X72191114Y-81808033D01*
X72170820Y-81804873D01*
X72154109Y-81801092D01*
X72134428Y-81795207D01*
X72134425Y-81795207D01*
X72125826Y-81792635D01*
X72116854Y-81792580D01*
X72116853Y-81792580D01*
X72093002Y-81792434D01*
X72090162Y-81792316D01*
X72088135Y-81792000D01*
X72022378Y-81792000D01*
X72021608Y-81791998D01*
X72021052Y-81791995D01*
X71980378Y-81791746D01*
X71979546Y-81791984D01*
X71979308Y-81792000D01*
X70022378Y-81792000D01*
X70021608Y-81791998D01*
X70021352Y-81791996D01*
X69980378Y-81791746D01*
X69971750Y-81794212D01*
X69971749Y-81794212D01*
X69951987Y-81799859D01*
X69935230Y-81803436D01*
X69914903Y-81806347D01*
X69914900Y-81806348D01*
X69906018Y-81807620D01*
X69897848Y-81811335D01*
X69897844Y-81811336D01*
X69882695Y-81818224D01*
X69865167Y-81824673D01*
X69849158Y-81829248D01*
X69849151Y-81829251D01*
X69840526Y-81831716D01*
X69815555Y-81847472D01*
X69800481Y-81855605D01*
X69773611Y-81867822D01*
X69756450Y-81882609D01*
X69754197Y-81884550D01*
X69739190Y-81895654D01*
X69717514Y-81909331D01*
X69711572Y-81916059D01*
X69697977Y-81931453D01*
X69685781Y-81943500D01*
X69670223Y-81956905D01*
X69670220Y-81956909D01*
X69663422Y-81962766D01*
X69658542Y-81970295D01*
X69658541Y-81970296D01*
X69649483Y-81984271D01*
X69638193Y-81999145D01*
X69621231Y-82018351D01*
X69608683Y-82045077D01*
X69600367Y-82060048D01*
X69584310Y-82084821D01*
X69581737Y-82093425D01*
X69581736Y-82093427D01*
X69576966Y-82109377D01*
X69570304Y-82126822D01*
X69567547Y-82132695D01*
X69559416Y-82150013D01*
X69558036Y-82158877D01*
X69558033Y-82158886D01*
X69554873Y-82179180D01*
X69551092Y-82195891D01*
X69545207Y-82215572D01*
X69542635Y-82224174D01*
X69542580Y-82233146D01*
X69542580Y-82233147D01*
X69542434Y-82256998D01*
X69542316Y-82259838D01*
X69542000Y-82261865D01*
X69542000Y-82327622D01*
X69541998Y-82328392D01*
X69541746Y-82369622D01*
X43508000Y-82369622D01*
X43508000Y-80082621D01*
X43509874Y-80060973D01*
X43511383Y-80052321D01*
X43511383Y-80052320D01*
X43512219Y-80047527D01*
X43514318Y-79932311D01*
X43514618Y-79925620D01*
X43515798Y-79909117D01*
X43517848Y-79880454D01*
X43518806Y-79871547D01*
X43542615Y-79705952D01*
X43544208Y-79697124D01*
X43549942Y-79670761D01*
X43552165Y-79662055D01*
X43599297Y-79501538D01*
X43602137Y-79493004D01*
X43611551Y-79467764D01*
X43614994Y-79459453D01*
X43684497Y-79307264D01*
X43688522Y-79299222D01*
X43701434Y-79275575D01*
X43706024Y-79267840D01*
X43796460Y-79127117D01*
X43801590Y-79119727D01*
X43817753Y-79098136D01*
X43823397Y-79091133D01*
X43932945Y-78964708D01*
X43939074Y-78958126D01*
X43958127Y-78939073D01*
X43964710Y-78932943D01*
X44091139Y-78823393D01*
X44098137Y-78817754D01*
X44119722Y-78801594D01*
X44127106Y-78796467D01*
X44267851Y-78706016D01*
X44275581Y-78701430D01*
X44299231Y-78688517D01*
X44307255Y-78684500D01*
X44459446Y-78614996D01*
X44467745Y-78611558D01*
X44493022Y-78602131D01*
X44501553Y-78599292D01*
X44662044Y-78552168D01*
X44670753Y-78549945D01*
X44687294Y-78546346D01*
X44697109Y-78544211D01*
X44705942Y-78542617D01*
X44769739Y-78533444D01*
X44871550Y-78518807D01*
X44880490Y-78517846D01*
X44925616Y-78514618D01*
X44932311Y-78514318D01*
X45039770Y-78512361D01*
X45039776Y-78512360D01*
X45044250Y-78512279D01*
X45048671Y-78511563D01*
X45048676Y-78511563D01*
X45060685Y-78509619D01*
X45080816Y-78508000D01*
X105074000Y-78508000D01*
X105142121Y-78528002D01*
G37*
G04 #@! TD.AperFunction*
G04 #@! TA.AperFunction,Conductor*
G36*
X258939027Y-78509874D02*
G01*
X258947679Y-78511383D01*
X258947680Y-78511383D01*
X258952473Y-78512219D01*
X258957332Y-78512308D01*
X258957337Y-78512308D01*
X259067689Y-78514318D01*
X259074380Y-78514618D01*
X259090883Y-78515798D01*
X259119546Y-78517848D01*
X259128453Y-78518806D01*
X259294048Y-78542615D01*
X259302876Y-78544208D01*
X259329239Y-78549942D01*
X259337945Y-78552165D01*
X259498462Y-78599297D01*
X259506996Y-78602137D01*
X259532236Y-78611551D01*
X259540547Y-78614994D01*
X259692736Y-78684497D01*
X259700778Y-78688522D01*
X259724425Y-78701434D01*
X259732160Y-78706024D01*
X259872883Y-78796460D01*
X259880273Y-78801590D01*
X259901864Y-78817753D01*
X259908867Y-78823397D01*
X260035292Y-78932945D01*
X260041874Y-78939074D01*
X260060927Y-78958127D01*
X260067057Y-78964710D01*
X260176607Y-79091139D01*
X260182246Y-79098137D01*
X260198406Y-79119722D01*
X260203533Y-79127106D01*
X260293981Y-79267847D01*
X260298570Y-79275581D01*
X260311478Y-79299220D01*
X260315500Y-79307255D01*
X260385004Y-79459446D01*
X260388442Y-79467745D01*
X260397869Y-79493022D01*
X260400708Y-79501553D01*
X260447832Y-79662044D01*
X260450055Y-79670753D01*
X260455787Y-79697097D01*
X260457383Y-79705942D01*
X260466556Y-79769739D01*
X260481193Y-79871550D01*
X260482154Y-79880490D01*
X260485382Y-79925616D01*
X260485682Y-79932311D01*
X260487721Y-80044250D01*
X260488437Y-80048671D01*
X260488437Y-80048676D01*
X260490381Y-80060685D01*
X260492000Y-80080816D01*
X260492000Y-105917379D01*
X260490126Y-105939027D01*
X260487781Y-105952473D01*
X260487692Y-105957332D01*
X260487692Y-105957337D01*
X260485682Y-106067689D01*
X260485382Y-106074380D01*
X260482152Y-106119546D01*
X260481195Y-106128450D01*
X260473595Y-106181307D01*
X260457385Y-106294045D01*
X260455789Y-106302891D01*
X260450056Y-106329244D01*
X260447840Y-106337928D01*
X260419443Y-106434640D01*
X260400702Y-106498465D01*
X260397862Y-106506998D01*
X260388450Y-106532233D01*
X260385008Y-106540543D01*
X260315501Y-106692742D01*
X260311475Y-106700785D01*
X260298571Y-106724417D01*
X260293981Y-106732152D01*
X260203535Y-106872891D01*
X260198411Y-106880271D01*
X260185105Y-106898046D01*
X260182255Y-106901853D01*
X260176614Y-106908853D01*
X260067063Y-107035284D01*
X260060933Y-107041867D01*
X260041868Y-107060932D01*
X260035285Y-107067062D01*
X259908859Y-107176610D01*
X259901865Y-107182246D01*
X259880260Y-107198420D01*
X259872902Y-107203528D01*
X259761071Y-107275397D01*
X259732156Y-107293979D01*
X259724428Y-107298565D01*
X259700769Y-107311483D01*
X259692735Y-107315505D01*
X259540549Y-107385006D01*
X259532238Y-107388448D01*
X259506989Y-107397865D01*
X259498457Y-107400705D01*
X259438391Y-107418342D01*
X259337953Y-107447833D01*
X259329247Y-107450055D01*
X259302894Y-107455788D01*
X259294047Y-107457385D01*
X259253048Y-107463280D01*
X259128451Y-107481193D01*
X259119510Y-107482154D01*
X259074383Y-107485382D01*
X259067688Y-107485682D01*
X258960233Y-107487639D01*
X258960228Y-107487639D01*
X258955751Y-107487721D01*
X258940717Y-107490154D01*
X258939309Y-107490382D01*
X258919179Y-107492000D01*
X200626014Y-107492000D01*
X200557893Y-107471998D01*
X200511400Y-107418342D01*
X200500014Y-107365987D01*
X200500892Y-98700000D01*
X216386500Y-98700000D01*
X216406462Y-98889927D01*
X216465476Y-99071554D01*
X216560963Y-99236942D01*
X216688749Y-99378863D01*
X216694091Y-99382744D01*
X216694093Y-99382746D01*
X216837908Y-99487233D01*
X216843250Y-99491114D01*
X216849278Y-99493798D01*
X216849280Y-99493799D01*
X217011682Y-99566105D01*
X217017713Y-99568790D01*
X217202676Y-99608105D01*
X217202677Y-99608106D01*
X217204513Y-99608496D01*
X217204442Y-99608832D01*
X217266715Y-99634448D01*
X217307724Y-99693812D01*
X217365476Y-99871554D01*
X217460963Y-100036942D01*
X217588749Y-100178863D01*
X217594091Y-100182744D01*
X217594093Y-100182746D01*
X217737908Y-100287233D01*
X217743250Y-100291114D01*
X217749278Y-100293798D01*
X217749280Y-100293799D01*
X217911682Y-100366105D01*
X217917713Y-100368790D01*
X218011113Y-100388643D01*
X218098056Y-100407124D01*
X218098061Y-100407124D01*
X218104513Y-100408496D01*
X218295487Y-100408496D01*
X218301939Y-100407124D01*
X218301944Y-100407124D01*
X218388887Y-100388643D01*
X218482287Y-100368790D01*
X218488318Y-100366105D01*
X218650720Y-100293799D01*
X218650722Y-100293798D01*
X218656750Y-100291114D01*
X218662092Y-100287233D01*
X218805907Y-100182746D01*
X218805909Y-100182744D01*
X218811251Y-100178863D01*
X218939037Y-100036942D01*
X219034524Y-99871554D01*
X219093538Y-99689927D01*
X219110903Y-99524710D01*
X219137916Y-99459054D01*
X219147118Y-99448786D01*
X220725499Y-97870405D01*
X220787811Y-97836379D01*
X220814594Y-97833500D01*
X225721616Y-97833500D01*
X225732520Y-97834014D01*
X225739911Y-97835666D01*
X225747837Y-97835417D01*
X225747838Y-97835417D01*
X225806866Y-97833562D01*
X225810823Y-97833500D01*
X225839578Y-97833500D01*
X225843845Y-97832961D01*
X225855687Y-97832028D01*
X225887335Y-97831033D01*
X225891960Y-97830888D01*
X225899883Y-97830639D01*
X225919334Y-97824988D01*
X225938695Y-97820978D01*
X225941420Y-97820634D01*
X225950930Y-97819433D01*
X225950933Y-97819432D01*
X225958788Y-97818440D01*
X225966153Y-97815524D01*
X225966157Y-97815523D01*
X225999901Y-97802163D01*
X226011130Y-97798318D01*
X226053578Y-97785986D01*
X226060406Y-97781948D01*
X226071011Y-97775677D01*
X226088762Y-97766981D01*
X226100226Y-97762442D01*
X226100229Y-97762440D01*
X226107600Y-97759522D01*
X226143368Y-97733535D01*
X226153291Y-97727016D01*
X226191341Y-97704514D01*
X226191759Y-97704145D01*
X226205842Y-97690062D01*
X226220867Y-97677228D01*
X226237083Y-97665446D01*
X226265030Y-97631664D01*
X226273019Y-97622885D01*
X228426282Y-95469622D01*
X231491746Y-95469622D01*
X231491984Y-95470454D01*
X231492000Y-95470692D01*
X231492000Y-103727622D01*
X231491998Y-103728392D01*
X231491746Y-103769622D01*
X231494212Y-103778250D01*
X231494212Y-103778251D01*
X231499859Y-103798013D01*
X231503436Y-103814770D01*
X231504303Y-103820820D01*
X231507620Y-103843982D01*
X231511335Y-103852152D01*
X231511336Y-103852156D01*
X231518224Y-103867305D01*
X231524673Y-103884833D01*
X231529248Y-103900842D01*
X231529251Y-103900849D01*
X231531716Y-103909474D01*
X231547472Y-103934445D01*
X231555605Y-103949519D01*
X231567822Y-103976389D01*
X231584550Y-103995803D01*
X231595654Y-104010810D01*
X231609331Y-104032486D01*
X231621344Y-104043095D01*
X231631453Y-104052023D01*
X231643500Y-104064219D01*
X231656905Y-104079777D01*
X231656909Y-104079780D01*
X231662766Y-104086578D01*
X231670295Y-104091458D01*
X231670296Y-104091459D01*
X231684271Y-104100517D01*
X231699145Y-104111807D01*
X231718351Y-104128769D01*
X231745077Y-104141317D01*
X231760048Y-104149633D01*
X231784821Y-104165690D01*
X231793425Y-104168263D01*
X231793427Y-104168264D01*
X231809377Y-104173034D01*
X231826822Y-104179696D01*
X231841887Y-104186769D01*
X231841889Y-104186769D01*
X231850013Y-104190584D01*
X231858877Y-104191964D01*
X231858886Y-104191967D01*
X231879180Y-104195127D01*
X231895891Y-104198908D01*
X231915572Y-104204793D01*
X231915575Y-104204793D01*
X231924174Y-104207365D01*
X231933146Y-104207420D01*
X231933147Y-104207420D01*
X231956998Y-104207566D01*
X231959838Y-104207684D01*
X231961865Y-104208000D01*
X232027622Y-104208000D01*
X232028392Y-104208002D01*
X232069622Y-104208254D01*
X232070454Y-104208016D01*
X232070692Y-104208000D01*
X234027622Y-104208000D01*
X234028392Y-104208002D01*
X234069622Y-104208254D01*
X234078251Y-104205788D01*
X234098013Y-104200141D01*
X234114770Y-104196564D01*
X234135097Y-104193653D01*
X234135100Y-104193652D01*
X234143982Y-104192380D01*
X234152152Y-104188665D01*
X234152156Y-104188664D01*
X234167305Y-104181776D01*
X234184833Y-104175327D01*
X234200842Y-104170752D01*
X234200849Y-104170749D01*
X234209474Y-104168284D01*
X234234445Y-104152528D01*
X234249519Y-104144395D01*
X234276389Y-104132178D01*
X234295803Y-104115450D01*
X234310810Y-104104346D01*
X234332486Y-104090669D01*
X234352026Y-104068544D01*
X234364219Y-104056500D01*
X234379777Y-104043095D01*
X234379780Y-104043091D01*
X234386578Y-104037234D01*
X234400517Y-104015729D01*
X234411807Y-104000855D01*
X234422826Y-103988378D01*
X234428769Y-103981649D01*
X234441317Y-103954923D01*
X234449633Y-103939952D01*
X234465690Y-103915179D01*
X234468264Y-103906573D01*
X234473034Y-103890623D01*
X234479696Y-103873178D01*
X234486769Y-103858113D01*
X234486769Y-103858111D01*
X234490584Y-103849987D01*
X234491964Y-103841123D01*
X234491967Y-103841114D01*
X234495127Y-103820820D01*
X234498908Y-103804109D01*
X234504793Y-103784428D01*
X234504793Y-103784425D01*
X234507365Y-103775826D01*
X234507566Y-103743002D01*
X234507684Y-103740162D01*
X234508000Y-103738135D01*
X234508000Y-103672378D01*
X234508002Y-103671608D01*
X234508239Y-103632817D01*
X234508254Y-103630378D01*
X234508016Y-103629546D01*
X234508000Y-103629308D01*
X234508000Y-95372378D01*
X234508002Y-95371608D01*
X234508037Y-95365939D01*
X234508254Y-95330378D01*
X234504023Y-95315572D01*
X234500141Y-95301987D01*
X234496564Y-95285230D01*
X234493653Y-95264903D01*
X234493652Y-95264900D01*
X234492380Y-95256018D01*
X234488665Y-95247848D01*
X234488664Y-95247844D01*
X234481776Y-95232695D01*
X234475327Y-95215167D01*
X234470752Y-95199158D01*
X234470749Y-95199151D01*
X234468284Y-95190526D01*
X234452528Y-95165555D01*
X234444395Y-95150481D01*
X234432178Y-95123611D01*
X234415450Y-95104197D01*
X234404346Y-95089190D01*
X234390669Y-95067514D01*
X234368544Y-95047974D01*
X234356500Y-95035781D01*
X234343095Y-95020223D01*
X234343091Y-95020220D01*
X234337234Y-95013422D01*
X234329635Y-95008496D01*
X234315729Y-94999483D01*
X234300855Y-94988193D01*
X234288378Y-94977174D01*
X234281649Y-94971231D01*
X234254923Y-94958683D01*
X234239952Y-94950367D01*
X234215179Y-94934310D01*
X234206575Y-94931737D01*
X234206573Y-94931736D01*
X234190623Y-94926966D01*
X234173178Y-94920304D01*
X234158113Y-94913231D01*
X234158111Y-94913231D01*
X234149987Y-94909416D01*
X234141123Y-94908036D01*
X234141114Y-94908033D01*
X234120820Y-94904873D01*
X234104109Y-94901092D01*
X234084428Y-94895207D01*
X234084425Y-94895207D01*
X234075826Y-94892635D01*
X234066854Y-94892580D01*
X234066853Y-94892580D01*
X234043002Y-94892434D01*
X234040162Y-94892316D01*
X234038135Y-94892000D01*
X233972378Y-94892000D01*
X233971608Y-94891998D01*
X233971052Y-94891995D01*
X233930378Y-94891746D01*
X233929546Y-94891984D01*
X233929308Y-94892000D01*
X231972378Y-94892000D01*
X231971608Y-94891998D01*
X231971352Y-94891996D01*
X231930378Y-94891746D01*
X231921750Y-94894212D01*
X231921749Y-94894212D01*
X231901987Y-94899859D01*
X231885230Y-94903436D01*
X231864903Y-94906347D01*
X231864900Y-94906348D01*
X231856018Y-94907620D01*
X231847848Y-94911335D01*
X231847844Y-94911336D01*
X231832695Y-94918224D01*
X231815167Y-94924673D01*
X231799158Y-94929248D01*
X231799151Y-94929251D01*
X231790526Y-94931716D01*
X231765555Y-94947472D01*
X231750481Y-94955605D01*
X231723611Y-94967822D01*
X231704197Y-94984550D01*
X231689190Y-94995654D01*
X231667514Y-95009331D01*
X231661572Y-95016059D01*
X231647977Y-95031453D01*
X231635781Y-95043500D01*
X231620223Y-95056905D01*
X231620220Y-95056909D01*
X231613422Y-95062766D01*
X231608542Y-95070295D01*
X231608541Y-95070296D01*
X231599483Y-95084271D01*
X231588193Y-95099145D01*
X231571231Y-95118351D01*
X231558683Y-95145077D01*
X231550367Y-95160048D01*
X231534310Y-95184821D01*
X231531737Y-95193425D01*
X231531736Y-95193427D01*
X231526966Y-95209377D01*
X231520304Y-95226822D01*
X231509416Y-95250013D01*
X231508036Y-95258877D01*
X231508033Y-95258886D01*
X231504873Y-95279180D01*
X231501092Y-95295891D01*
X231495207Y-95315572D01*
X231492635Y-95324174D01*
X231492580Y-95333146D01*
X231492580Y-95333147D01*
X231492434Y-95356998D01*
X231492316Y-95359838D01*
X231492000Y-95361865D01*
X231492000Y-95427622D01*
X231491998Y-95428392D01*
X231491746Y-95469622D01*
X228426282Y-95469622D01*
X230025499Y-93870405D01*
X230087811Y-93836379D01*
X230114594Y-93833500D01*
X233521616Y-93833500D01*
X233532520Y-93834014D01*
X233539911Y-93835666D01*
X233547837Y-93835417D01*
X233547838Y-93835417D01*
X233606866Y-93833562D01*
X233610823Y-93833500D01*
X233639578Y-93833500D01*
X233643845Y-93832961D01*
X233655687Y-93832028D01*
X233687335Y-93831033D01*
X233691960Y-93830888D01*
X233699883Y-93830639D01*
X233719334Y-93824988D01*
X233738695Y-93820978D01*
X233741420Y-93820634D01*
X233750930Y-93819433D01*
X233750933Y-93819432D01*
X233758788Y-93818440D01*
X233766153Y-93815524D01*
X233766157Y-93815523D01*
X233799901Y-93802163D01*
X233811130Y-93798318D01*
X233853578Y-93785986D01*
X233860406Y-93781948D01*
X233871011Y-93775677D01*
X233888762Y-93766981D01*
X233900226Y-93762442D01*
X233900229Y-93762440D01*
X233907600Y-93759522D01*
X233943368Y-93733535D01*
X233953291Y-93727016D01*
X233960550Y-93722723D01*
X233991341Y-93704514D01*
X233991759Y-93704145D01*
X234005842Y-93690062D01*
X234020867Y-93677228D01*
X234037083Y-93665446D01*
X234065030Y-93631664D01*
X234073019Y-93622885D01*
X237425499Y-90270405D01*
X237487811Y-90236379D01*
X237514594Y-90233500D01*
X245123011Y-90233500D01*
X245197072Y-90257564D01*
X245214746Y-90270405D01*
X245243250Y-90291114D01*
X245249278Y-90293798D01*
X245249280Y-90293799D01*
X245374445Y-90349526D01*
X245417713Y-90368790D01*
X245511113Y-90388643D01*
X245598056Y-90407124D01*
X245598061Y-90407124D01*
X245604513Y-90408496D01*
X245795487Y-90408496D01*
X245801939Y-90407124D01*
X245801944Y-90407124D01*
X245888887Y-90388643D01*
X245982287Y-90368790D01*
X246025555Y-90349526D01*
X246150720Y-90293799D01*
X246150722Y-90293798D01*
X246156750Y-90291114D01*
X246185254Y-90270405D01*
X246305907Y-90182746D01*
X246305909Y-90182744D01*
X246311251Y-90178863D01*
X246439037Y-90036942D01*
X246534524Y-89871554D01*
X246593538Y-89689927D01*
X246603831Y-89592000D01*
X246612810Y-89506565D01*
X246613500Y-89500000D01*
X246601648Y-89387233D01*
X246594228Y-89316637D01*
X246594228Y-89316636D01*
X246593538Y-89310073D01*
X246534524Y-89128446D01*
X246439037Y-88963058D01*
X246430609Y-88953697D01*
X246315673Y-88826048D01*
X246315672Y-88826047D01*
X246311251Y-88821137D01*
X246305909Y-88817256D01*
X246305907Y-88817254D01*
X246284823Y-88801936D01*
X246241469Y-88745714D01*
X246235394Y-88674978D01*
X246268525Y-88612186D01*
X246284823Y-88598064D01*
X246305907Y-88582746D01*
X246305909Y-88582744D01*
X246311251Y-88578863D01*
X246377528Y-88505255D01*
X246434618Y-88441850D01*
X246434619Y-88441849D01*
X246439037Y-88436942D01*
X246503531Y-88325236D01*
X246531220Y-88277277D01*
X246531221Y-88277276D01*
X246534524Y-88271554D01*
X246593538Y-88089927D01*
X246613500Y-87900000D01*
X246593538Y-87710073D01*
X246587951Y-87692876D01*
X246548397Y-87571142D01*
X246534524Y-87528446D01*
X246439037Y-87363058D01*
X246424316Y-87346708D01*
X246315673Y-87226048D01*
X246315672Y-87226047D01*
X246311251Y-87221137D01*
X246305909Y-87217256D01*
X246305907Y-87217254D01*
X246162092Y-87112767D01*
X246162091Y-87112766D01*
X246156750Y-87108886D01*
X246150722Y-87106202D01*
X246150720Y-87106201D01*
X245988318Y-87033895D01*
X245988317Y-87033895D01*
X245982287Y-87031210D01*
X245888887Y-87011357D01*
X245801944Y-86992876D01*
X245801939Y-86992876D01*
X245795487Y-86991504D01*
X245604513Y-86991504D01*
X245598061Y-86992876D01*
X245598056Y-86992876D01*
X245511113Y-87011357D01*
X245417713Y-87031210D01*
X245411683Y-87033895D01*
X245411682Y-87033895D01*
X245249280Y-87106201D01*
X245249278Y-87106202D01*
X245243250Y-87108886D01*
X245237909Y-87112766D01*
X245237908Y-87112767D01*
X245197072Y-87142436D01*
X245123011Y-87166500D01*
X237878396Y-87166500D01*
X237867482Y-87165986D01*
X237860089Y-87164333D01*
X237852164Y-87164582D01*
X237852163Y-87164582D01*
X237793116Y-87166438D01*
X237789158Y-87166500D01*
X237760422Y-87166500D01*
X237756151Y-87167039D01*
X237744322Y-87167971D01*
X237700117Y-87169361D01*
X237692501Y-87171574D01*
X237692499Y-87171574D01*
X237680661Y-87175013D01*
X237661302Y-87179022D01*
X237649079Y-87180566D01*
X237649078Y-87180566D01*
X237641212Y-87181560D01*
X237633836Y-87184480D01*
X237633837Y-87184480D01*
X237600111Y-87197832D01*
X237588882Y-87201677D01*
X237554035Y-87211801D01*
X237554034Y-87211802D01*
X237546422Y-87214013D01*
X237528983Y-87224326D01*
X237511231Y-87233022D01*
X237492400Y-87240478D01*
X237469981Y-87256766D01*
X237456629Y-87266467D01*
X237446711Y-87272982D01*
X237408659Y-87295486D01*
X237408241Y-87295855D01*
X237394158Y-87309938D01*
X237379133Y-87322772D01*
X237362917Y-87334554D01*
X237334971Y-87368335D01*
X237326981Y-87377115D01*
X234773095Y-89931001D01*
X234710783Y-89965027D01*
X234639968Y-89959962D01*
X234583132Y-89917415D01*
X234558321Y-89850895D01*
X234558000Y-89841906D01*
X234558000Y-81772378D01*
X234558002Y-81771608D01*
X234558037Y-81765939D01*
X234558254Y-81730378D01*
X234554023Y-81715572D01*
X234550141Y-81701987D01*
X234546564Y-81685230D01*
X234543653Y-81664903D01*
X234543652Y-81664900D01*
X234542380Y-81656018D01*
X234538665Y-81647848D01*
X234538664Y-81647844D01*
X234531776Y-81632695D01*
X234525327Y-81615167D01*
X234520752Y-81599158D01*
X234520749Y-81599151D01*
X234518284Y-81590526D01*
X234502528Y-81565555D01*
X234494395Y-81550481D01*
X234482178Y-81523611D01*
X234465450Y-81504197D01*
X234454346Y-81489190D01*
X234440669Y-81467514D01*
X234418544Y-81447974D01*
X234406500Y-81435781D01*
X234393095Y-81420223D01*
X234393091Y-81420220D01*
X234387234Y-81413422D01*
X234365729Y-81399483D01*
X234350855Y-81388193D01*
X234338378Y-81377174D01*
X234331649Y-81371231D01*
X234304923Y-81358683D01*
X234289952Y-81350367D01*
X234265179Y-81334310D01*
X234256575Y-81331737D01*
X234256573Y-81331736D01*
X234240623Y-81326966D01*
X234223178Y-81320304D01*
X234208113Y-81313231D01*
X234208111Y-81313231D01*
X234199987Y-81309416D01*
X234191123Y-81308036D01*
X234191114Y-81308033D01*
X234170820Y-81304873D01*
X234154109Y-81301092D01*
X234134428Y-81295207D01*
X234134425Y-81295207D01*
X234125826Y-81292635D01*
X234116854Y-81292580D01*
X234116853Y-81292580D01*
X234093002Y-81292434D01*
X234090162Y-81292316D01*
X234088135Y-81292000D01*
X234022378Y-81292000D01*
X234021608Y-81291998D01*
X234021052Y-81291995D01*
X233980378Y-81291746D01*
X233979546Y-81291984D01*
X233979308Y-81292000D01*
X232022378Y-81292000D01*
X232021608Y-81291998D01*
X232021352Y-81291996D01*
X231980378Y-81291746D01*
X231971750Y-81294212D01*
X231971749Y-81294212D01*
X231951987Y-81299859D01*
X231935230Y-81303436D01*
X231914903Y-81306347D01*
X231914900Y-81306348D01*
X231906018Y-81307620D01*
X231897848Y-81311335D01*
X231897844Y-81311336D01*
X231882695Y-81318224D01*
X231865167Y-81324673D01*
X231849158Y-81329248D01*
X231849151Y-81329251D01*
X231840526Y-81331716D01*
X231815555Y-81347472D01*
X231800481Y-81355605D01*
X231773611Y-81367822D01*
X231754197Y-81384550D01*
X231739190Y-81395654D01*
X231717514Y-81409331D01*
X231711572Y-81416059D01*
X231697977Y-81431453D01*
X231685781Y-81443500D01*
X231670223Y-81456905D01*
X231670220Y-81456909D01*
X231663422Y-81462766D01*
X231658542Y-81470295D01*
X231658541Y-81470296D01*
X231649483Y-81484271D01*
X231638193Y-81499145D01*
X231621231Y-81518351D01*
X231608683Y-81545077D01*
X231600367Y-81560048D01*
X231584310Y-81584821D01*
X231581737Y-81593425D01*
X231581736Y-81593427D01*
X231576966Y-81609377D01*
X231570304Y-81626822D01*
X231559416Y-81650013D01*
X231558036Y-81658877D01*
X231558033Y-81658886D01*
X231554873Y-81679180D01*
X231551092Y-81695891D01*
X231545207Y-81715572D01*
X231542635Y-81724174D01*
X231542580Y-81733146D01*
X231542580Y-81733147D01*
X231542434Y-81756998D01*
X231542316Y-81759838D01*
X231542000Y-81761865D01*
X231542000Y-81827622D01*
X231541998Y-81828392D01*
X231541746Y-81869622D01*
X231541984Y-81870454D01*
X231542000Y-81870692D01*
X231542000Y-90127622D01*
X231541998Y-90128392D01*
X231541746Y-90169622D01*
X231544212Y-90178250D01*
X231544212Y-90178251D01*
X231549859Y-90198013D01*
X231553436Y-90214770D01*
X231556119Y-90233500D01*
X231557620Y-90243982D01*
X231561335Y-90252152D01*
X231561336Y-90252156D01*
X231568224Y-90267305D01*
X231574673Y-90284833D01*
X231579248Y-90300842D01*
X231579251Y-90300849D01*
X231581716Y-90309474D01*
X231597472Y-90334445D01*
X231605605Y-90349519D01*
X231617822Y-90376389D01*
X231634550Y-90395803D01*
X231645654Y-90410810D01*
X231659331Y-90432486D01*
X231666059Y-90438428D01*
X231681453Y-90452023D01*
X231693500Y-90464219D01*
X231706905Y-90479777D01*
X231706909Y-90479780D01*
X231712766Y-90486578D01*
X231720295Y-90491458D01*
X231720296Y-90491459D01*
X231734271Y-90500517D01*
X231749145Y-90511807D01*
X231768351Y-90528769D01*
X231795077Y-90541317D01*
X231810048Y-90549633D01*
X231834821Y-90565690D01*
X231843425Y-90568263D01*
X231843427Y-90568264D01*
X231859377Y-90573034D01*
X231876822Y-90579696D01*
X231891887Y-90586769D01*
X231891889Y-90586769D01*
X231900013Y-90590584D01*
X231908877Y-90591964D01*
X231908886Y-90591967D01*
X231929180Y-90595127D01*
X231945891Y-90598908D01*
X231965572Y-90604793D01*
X231965575Y-90604793D01*
X231974174Y-90607365D01*
X231983146Y-90607420D01*
X231983147Y-90607420D01*
X232006998Y-90607566D01*
X232009838Y-90607684D01*
X232011865Y-90608000D01*
X232077622Y-90608000D01*
X232078392Y-90608002D01*
X232119622Y-90608254D01*
X232120454Y-90608016D01*
X232120692Y-90608000D01*
X233791906Y-90608000D01*
X233860027Y-90628002D01*
X233906520Y-90681658D01*
X233916624Y-90751932D01*
X233887130Y-90816512D01*
X233881001Y-90823095D01*
X232874501Y-91829595D01*
X232812189Y-91863621D01*
X232785406Y-91866500D01*
X230259500Y-91866500D01*
X230191379Y-91846498D01*
X230144886Y-91792842D01*
X230133500Y-91740500D01*
X230133500Y-87778384D01*
X230134014Y-87767480D01*
X230135666Y-87760089D01*
X230133562Y-87693134D01*
X230133500Y-87689177D01*
X230133500Y-87660422D01*
X230132961Y-87656155D01*
X230132027Y-87644305D01*
X230130888Y-87608042D01*
X230130639Y-87600117D01*
X230124987Y-87580661D01*
X230120978Y-87561302D01*
X230119434Y-87549079D01*
X230119434Y-87549078D01*
X230118440Y-87541212D01*
X230106884Y-87512023D01*
X230102168Y-87500111D01*
X230098323Y-87488882D01*
X230088199Y-87454035D01*
X230088198Y-87454034D01*
X230085987Y-87446422D01*
X230075674Y-87428983D01*
X230066978Y-87411231D01*
X230062442Y-87399775D01*
X230059522Y-87392400D01*
X230033533Y-87356629D01*
X230027016Y-87346708D01*
X230019828Y-87334554D01*
X230004514Y-87308659D01*
X230004145Y-87308241D01*
X229990062Y-87294158D01*
X229977228Y-87279133D01*
X229965446Y-87262917D01*
X229931664Y-87234970D01*
X229922885Y-87226981D01*
X226535302Y-83839398D01*
X226501276Y-83777086D01*
X226499087Y-83737133D01*
X226512810Y-83606566D01*
X226512810Y-83606565D01*
X226513500Y-83600000D01*
X226493538Y-83410073D01*
X226487818Y-83392467D01*
X226436566Y-83234731D01*
X226434524Y-83228446D01*
X226405161Y-83177587D01*
X226397311Y-83163992D01*
X226339037Y-83063058D01*
X226327544Y-83050293D01*
X226215673Y-82926048D01*
X226215672Y-82926047D01*
X226211251Y-82921137D01*
X226205909Y-82917256D01*
X226205907Y-82917254D01*
X226062092Y-82812767D01*
X226062091Y-82812766D01*
X226056750Y-82808886D01*
X226050722Y-82806202D01*
X226050720Y-82806201D01*
X225888318Y-82733895D01*
X225888317Y-82733895D01*
X225882287Y-82731210D01*
X225788887Y-82711357D01*
X225701944Y-82692876D01*
X225701939Y-82692876D01*
X225695487Y-82691504D01*
X225504513Y-82691504D01*
X225498061Y-82692876D01*
X225498056Y-82692876D01*
X225411113Y-82711357D01*
X225317713Y-82731210D01*
X225311683Y-82733895D01*
X225311682Y-82733895D01*
X225149280Y-82806201D01*
X225149278Y-82806202D01*
X225143250Y-82808886D01*
X225137909Y-82812766D01*
X225137908Y-82812767D01*
X224994093Y-82917254D01*
X224994091Y-82917256D01*
X224988749Y-82921137D01*
X224984328Y-82926047D01*
X224984327Y-82926048D01*
X224872457Y-83050293D01*
X224860963Y-83063058D01*
X224802689Y-83163992D01*
X224794840Y-83177587D01*
X224765476Y-83228446D01*
X224763434Y-83234731D01*
X224712183Y-83392467D01*
X224706462Y-83410073D01*
X224686500Y-83600000D01*
X224687190Y-83606565D01*
X224699509Y-83723769D01*
X224706462Y-83789927D01*
X224765476Y-83971554D01*
X224860963Y-84136942D01*
X224988749Y-84278863D01*
X224994091Y-84282744D01*
X224994093Y-84282746D01*
X225137908Y-84387233D01*
X225143250Y-84391114D01*
X225149278Y-84393798D01*
X225149280Y-84393799D01*
X225311682Y-84466105D01*
X225317713Y-84468790D01*
X225324168Y-84470162D01*
X225324177Y-84470165D01*
X225351275Y-84475925D01*
X225414172Y-84510076D01*
X228829595Y-87925499D01*
X228863621Y-87987811D01*
X228866500Y-88014594D01*
X228866500Y-91984860D01*
X228846498Y-92052981D01*
X228837587Y-92065172D01*
X228834973Y-92068332D01*
X228826981Y-92077115D01*
X224974501Y-95929595D01*
X224912189Y-95963621D01*
X224885406Y-95966500D01*
X219478383Y-95966500D01*
X219467479Y-95965986D01*
X219460088Y-95964334D01*
X219452163Y-95964583D01*
X219452162Y-95964583D01*
X219393147Y-95966438D01*
X219389189Y-95966500D01*
X219360422Y-95966500D01*
X219356498Y-95966996D01*
X219356496Y-95966996D01*
X219356148Y-95967040D01*
X219344302Y-95967973D01*
X219300117Y-95969362D01*
X219280661Y-95975014D01*
X219261321Y-95979019D01*
X219241212Y-95981560D01*
X219233840Y-95984479D01*
X219233835Y-95984480D01*
X219200101Y-95997836D01*
X219188872Y-96001681D01*
X219146421Y-96014014D01*
X219128988Y-96024324D01*
X219111241Y-96033018D01*
X219092400Y-96040478D01*
X219085985Y-96045139D01*
X219056629Y-96066467D01*
X219046712Y-96072982D01*
X219008658Y-96095487D01*
X219008241Y-96095855D01*
X218994158Y-96109938D01*
X218979133Y-96122772D01*
X218962917Y-96134554D01*
X218934971Y-96168335D01*
X218926981Y-96177115D01*
X217349497Y-97754599D01*
X217287185Y-97788625D01*
X217260402Y-97791504D01*
X217204513Y-97791504D01*
X217198061Y-97792876D01*
X217198056Y-97792876D01*
X217111113Y-97811357D01*
X217017713Y-97831210D01*
X217011683Y-97833895D01*
X217011682Y-97833895D01*
X216849280Y-97906201D01*
X216849278Y-97906202D01*
X216843250Y-97908886D01*
X216837909Y-97912766D01*
X216837908Y-97912767D01*
X216694093Y-98017254D01*
X216694091Y-98017256D01*
X216688749Y-98021137D01*
X216560963Y-98163058D01*
X216465476Y-98328446D01*
X216406462Y-98510073D01*
X216386500Y-98700000D01*
X200500892Y-98700000D01*
X200501620Y-91522604D01*
X200501631Y-91418978D01*
X203891500Y-91418978D01*
X203891500Y-92767886D01*
X203906978Y-92900643D01*
X203909474Y-92907521D01*
X203909475Y-92907523D01*
X203917070Y-92928446D01*
X203967313Y-93066864D01*
X204064269Y-93214747D01*
X204192645Y-93336358D01*
X204345555Y-93425175D01*
X204514796Y-93476433D01*
X204521236Y-93477008D01*
X204521237Y-93477008D01*
X204591185Y-93483251D01*
X204591191Y-93483251D01*
X204593978Y-93483500D01*
X205392886Y-93483500D01*
X205488106Y-93472398D01*
X205518371Y-93468870D01*
X205518372Y-93468870D01*
X205525643Y-93468022D01*
X205532519Y-93465526D01*
X205532524Y-93465525D01*
X205631098Y-93429744D01*
X205701956Y-93425303D01*
X205763184Y-93459088D01*
X206096609Y-93792513D01*
X206103969Y-93800601D01*
X206108027Y-93806995D01*
X206113804Y-93812420D01*
X206156878Y-93852869D01*
X206159720Y-93855624D01*
X206180034Y-93875938D01*
X206183445Y-93878583D01*
X206192465Y-93886287D01*
X206224699Y-93916557D01*
X206231643Y-93920374D01*
X206231645Y-93920376D01*
X206242453Y-93926318D01*
X206258977Y-93937172D01*
X206268711Y-93944723D01*
X206268713Y-93944724D01*
X206274977Y-93949583D01*
X206315561Y-93967146D01*
X206326190Y-93972353D01*
X206364952Y-93993662D01*
X206384578Y-93998701D01*
X206403271Y-94005102D01*
X206421865Y-94013148D01*
X206462511Y-94019586D01*
X206465531Y-94020064D01*
X206477154Y-94022471D01*
X206519975Y-94033465D01*
X206520531Y-94033500D01*
X206540447Y-94033500D01*
X206560157Y-94035051D01*
X206579945Y-94038185D01*
X206587837Y-94037439D01*
X206623593Y-94034059D01*
X206635451Y-94033500D01*
X210723011Y-94033500D01*
X210797073Y-94057564D01*
X210843250Y-94091114D01*
X210849278Y-94093798D01*
X210849280Y-94093799D01*
X210863208Y-94100000D01*
X211017713Y-94168790D01*
X211111113Y-94188643D01*
X211198056Y-94207124D01*
X211198061Y-94207124D01*
X211204513Y-94208496D01*
X211395487Y-94208496D01*
X211401939Y-94207124D01*
X211401944Y-94207124D01*
X211488887Y-94188643D01*
X211582287Y-94168790D01*
X211736792Y-94100000D01*
X211750720Y-94093799D01*
X211750722Y-94093798D01*
X211756750Y-94091114D01*
X211831308Y-94036945D01*
X211905907Y-93982746D01*
X211905909Y-93982744D01*
X211911251Y-93978863D01*
X211917106Y-93972360D01*
X212034618Y-93841850D01*
X212034619Y-93841849D01*
X212039037Y-93836942D01*
X212113743Y-93707548D01*
X212131220Y-93677277D01*
X212131221Y-93677276D01*
X212134524Y-93671554D01*
X212159043Y-93596093D01*
X212191498Y-93496206D01*
X212191498Y-93496205D01*
X212193538Y-93489927D01*
X212199864Y-93429744D01*
X212212810Y-93306565D01*
X212213500Y-93300000D01*
X212206126Y-93229838D01*
X212194228Y-93116637D01*
X212194228Y-93116636D01*
X212193538Y-93110073D01*
X212177264Y-93059985D01*
X212136566Y-92934731D01*
X212134524Y-92928446D01*
X212039037Y-92763058D01*
X212024127Y-92746498D01*
X211915673Y-92626048D01*
X211915672Y-92626047D01*
X211911251Y-92621137D01*
X211905909Y-92617256D01*
X211905907Y-92617254D01*
X211783059Y-92528000D01*
X213778500Y-92528000D01*
X213798462Y-92717927D01*
X213857476Y-92899554D01*
X213952963Y-93064942D01*
X214080749Y-93206863D01*
X214086091Y-93210744D01*
X214086093Y-93210746D01*
X214221172Y-93308886D01*
X214235250Y-93319114D01*
X214241278Y-93321798D01*
X214241280Y-93321799D01*
X214282239Y-93340035D01*
X214409713Y-93396790D01*
X214503113Y-93416643D01*
X214590056Y-93435124D01*
X214590061Y-93435124D01*
X214596513Y-93436496D01*
X214787487Y-93436496D01*
X214793939Y-93435124D01*
X214793944Y-93435124D01*
X214880887Y-93416643D01*
X214974287Y-93396790D01*
X215110020Y-93336358D01*
X215142722Y-93321798D01*
X215142723Y-93321797D01*
X215148750Y-93319114D01*
X215160521Y-93310562D01*
X215234580Y-93286500D01*
X222261629Y-93286500D01*
X222329750Y-93306502D01*
X222350724Y-93323405D01*
X223279881Y-94252562D01*
X223310619Y-94302721D01*
X223365476Y-94471554D01*
X223460963Y-94636942D01*
X223588749Y-94778863D01*
X223594091Y-94782744D01*
X223594093Y-94782746D01*
X223737908Y-94887233D01*
X223743250Y-94891114D01*
X223749278Y-94893798D01*
X223749280Y-94893799D01*
X223886823Y-94955037D01*
X223917713Y-94968790D01*
X224008996Y-94988193D01*
X224098056Y-95007124D01*
X224098061Y-95007124D01*
X224104513Y-95008496D01*
X224295487Y-95008496D01*
X224301939Y-95007124D01*
X224301944Y-95007124D01*
X224391004Y-94988193D01*
X224482287Y-94968790D01*
X224513177Y-94955037D01*
X224650720Y-94893799D01*
X224650722Y-94893798D01*
X224656750Y-94891114D01*
X224662092Y-94887233D01*
X224805907Y-94782746D01*
X224805909Y-94782744D01*
X224811251Y-94778863D01*
X224939037Y-94636942D01*
X225034524Y-94471554D01*
X225093538Y-94289927D01*
X225113500Y-94100000D01*
X225102530Y-93995630D01*
X225094228Y-93916637D01*
X225094228Y-93916636D01*
X225093538Y-93910073D01*
X225067919Y-93831224D01*
X225036566Y-93734731D01*
X225034524Y-93728446D01*
X224939037Y-93563058D01*
X224867280Y-93483363D01*
X224815673Y-93426048D01*
X224815672Y-93426047D01*
X224811251Y-93421137D01*
X224805909Y-93417256D01*
X224805907Y-93417254D01*
X224662092Y-93312767D01*
X224662091Y-93312766D01*
X224656750Y-93308886D01*
X224650722Y-93306202D01*
X224650720Y-93306201D01*
X224488318Y-93233895D01*
X224488317Y-93233895D01*
X224482287Y-93231210D01*
X224419234Y-93217808D01*
X224356337Y-93183656D01*
X223211003Y-92038322D01*
X223198615Y-92023908D01*
X223190729Y-92013192D01*
X223186389Y-92007294D01*
X223147650Y-91974382D01*
X223140133Y-91967452D01*
X223134016Y-91961335D01*
X223131143Y-91959062D01*
X223131134Y-91959054D01*
X223110657Y-91942854D01*
X223107253Y-91940063D01*
X223057206Y-91897545D01*
X223057204Y-91897544D01*
X223051624Y-91892803D01*
X223045106Y-91889475D01*
X223040081Y-91886123D01*
X223034936Y-91882946D01*
X223029198Y-91878406D01*
X222977081Y-91854048D01*
X222963095Y-91847511D01*
X222959145Y-91845580D01*
X222900655Y-91815714D01*
X222900653Y-91815713D01*
X222894135Y-91812385D01*
X222887028Y-91810646D01*
X222881377Y-91808544D01*
X222875627Y-91806631D01*
X222868998Y-91803533D01*
X222861838Y-91802044D01*
X222861827Y-91802040D01*
X222797507Y-91788661D01*
X222793220Y-91787691D01*
X222727828Y-91771690D01*
X222727822Y-91771689D01*
X222722370Y-91770355D01*
X222716766Y-91770007D01*
X222716764Y-91770007D01*
X222709976Y-91769586D01*
X222706579Y-91769329D01*
X222703039Y-91769013D01*
X222695871Y-91767522D01*
X222688554Y-91767720D01*
X222640461Y-91769022D01*
X222629103Y-91769329D01*
X222624484Y-91769454D01*
X222621075Y-91769500D01*
X220881219Y-91769500D01*
X220813098Y-91749498D01*
X220766605Y-91695842D01*
X220756501Y-91625568D01*
X220785995Y-91560988D01*
X220845721Y-91522604D01*
X220867065Y-91518298D01*
X220875977Y-91517290D01*
X220922173Y-91512068D01*
X220927288Y-91510587D01*
X220927292Y-91510586D01*
X221056298Y-91473228D01*
X221143635Y-91447937D01*
X221351125Y-91347409D01*
X221355463Y-91344309D01*
X221355468Y-91344306D01*
X221515883Y-91229670D01*
X221538711Y-91213357D01*
X221701030Y-91049617D01*
X221809789Y-90894581D01*
X221830375Y-90865236D01*
X221830376Y-90865234D01*
X221833439Y-90860868D01*
X221932153Y-90652508D01*
X221994349Y-90430494D01*
X222018249Y-90201176D01*
X222018500Y-90175000D01*
X222018044Y-90169622D01*
X222000175Y-89959025D01*
X222014346Y-89889457D01*
X222036629Y-89859277D01*
X222350505Y-89545401D01*
X222412817Y-89511375D01*
X222439600Y-89508496D01*
X222495487Y-89508496D01*
X222501939Y-89507124D01*
X222501944Y-89507124D01*
X222588887Y-89488643D01*
X222682287Y-89468790D01*
X222688318Y-89466105D01*
X222850720Y-89393799D01*
X222850722Y-89393798D01*
X222856750Y-89391114D01*
X222862092Y-89387233D01*
X223005907Y-89282746D01*
X223005909Y-89282744D01*
X223011251Y-89278863D01*
X223015673Y-89273952D01*
X223134618Y-89141850D01*
X223134619Y-89141849D01*
X223139037Y-89136942D01*
X223234524Y-88971554D01*
X223281803Y-88826043D01*
X223291498Y-88796206D01*
X223291498Y-88796205D01*
X223293538Y-88789927D01*
X223313500Y-88600000D01*
X223310762Y-88573952D01*
X223294228Y-88416637D01*
X223294228Y-88416636D01*
X223293538Y-88410073D01*
X223234524Y-88228446D01*
X223139037Y-88063058D01*
X223071285Y-87987811D01*
X223015673Y-87926048D01*
X223015672Y-87926047D01*
X223011251Y-87921137D01*
X223005909Y-87917256D01*
X223005907Y-87917254D01*
X222862092Y-87812767D01*
X222862091Y-87812766D01*
X222856750Y-87808886D01*
X222850722Y-87806202D01*
X222850720Y-87806201D01*
X222688318Y-87733895D01*
X222688317Y-87733895D01*
X222682287Y-87731210D01*
X222582846Y-87710073D01*
X222501944Y-87692876D01*
X222501939Y-87692876D01*
X222495487Y-87691504D01*
X222304513Y-87691504D01*
X222298061Y-87692876D01*
X222298056Y-87692876D01*
X222217154Y-87710073D01*
X222117713Y-87731210D01*
X222111683Y-87733895D01*
X222111682Y-87733895D01*
X221949280Y-87806201D01*
X221949278Y-87806202D01*
X221943250Y-87808886D01*
X221937909Y-87812766D01*
X221937908Y-87812767D01*
X221794093Y-87917254D01*
X221794091Y-87917256D01*
X221788749Y-87921137D01*
X221784328Y-87926047D01*
X221784327Y-87926048D01*
X221728716Y-87987811D01*
X221660963Y-88063058D01*
X221565476Y-88228446D01*
X221506462Y-88410073D01*
X221505772Y-88416636D01*
X221505772Y-88416637D01*
X221489097Y-88575290D01*
X221462084Y-88640946D01*
X221452882Y-88651214D01*
X221240427Y-88863669D01*
X221178115Y-88897695D01*
X221113971Y-88894907D01*
X220947792Y-88843307D01*
X220842798Y-88829391D01*
X220724515Y-88813714D01*
X220724510Y-88813714D01*
X220719230Y-88813014D01*
X220713900Y-88813214D01*
X220713899Y-88813214D01*
X220620320Y-88816727D01*
X220488831Y-88821663D01*
X220425897Y-88834868D01*
X220268411Y-88867912D01*
X220268408Y-88867913D01*
X220263184Y-88869009D01*
X220048740Y-88953697D01*
X219851631Y-89073306D01*
X219847601Y-89076803D01*
X219737739Y-89172136D01*
X219677492Y-89224415D01*
X219674109Y-89228541D01*
X219674105Y-89228545D01*
X219607257Y-89310073D01*
X219531304Y-89402705D01*
X219528667Y-89407338D01*
X219528666Y-89407339D01*
X219495116Y-89466278D01*
X219444033Y-89515584D01*
X219374402Y-89529445D01*
X219308332Y-89503461D01*
X219281094Y-89474312D01*
X219277377Y-89468790D01*
X219177627Y-89320626D01*
X219018482Y-89153799D01*
X218995826Y-89136942D01*
X218886470Y-89055579D01*
X218833504Y-89016171D01*
X218828743Y-89013751D01*
X218825425Y-89011693D01*
X218778071Y-88958796D01*
X218766832Y-88888695D01*
X218795277Y-88823645D01*
X218818564Y-88802093D01*
X218948993Y-88708886D01*
X218998711Y-88673357D01*
X219161030Y-88509617D01*
X219248043Y-88385580D01*
X219290375Y-88325236D01*
X219290376Y-88325234D01*
X219293439Y-88320868D01*
X219392153Y-88112508D01*
X219454349Y-87890494D01*
X219478249Y-87661176D01*
X219478500Y-87635000D01*
X219474894Y-87592500D01*
X219459458Y-87410576D01*
X219459457Y-87410572D01*
X219459007Y-87405265D01*
X219439446Y-87329898D01*
X219417447Y-87245140D01*
X219401084Y-87182098D01*
X219397893Y-87175013D01*
X219308578Y-86976743D01*
X219308577Y-86976741D01*
X219306388Y-86971882D01*
X219177627Y-86780626D01*
X219018482Y-86613799D01*
X218833504Y-86476171D01*
X218828753Y-86473755D01*
X218828749Y-86473753D01*
X218632740Y-86374097D01*
X218632739Y-86374097D01*
X218627982Y-86371678D01*
X218490566Y-86329009D01*
X218412895Y-86304891D01*
X218412889Y-86304890D01*
X218407792Y-86303307D01*
X218302798Y-86289391D01*
X218184515Y-86273714D01*
X218184510Y-86273714D01*
X218179230Y-86273014D01*
X218173900Y-86273214D01*
X218173899Y-86273214D01*
X218064031Y-86277338D01*
X217948831Y-86281663D01*
X217723184Y-86329009D01*
X217718227Y-86330967D01*
X217718219Y-86330969D01*
X217705779Y-86335882D01*
X217635073Y-86342299D01*
X217572122Y-86309470D01*
X217536913Y-86247819D01*
X217533500Y-86218689D01*
X217533500Y-84114594D01*
X217553502Y-84046473D01*
X217570405Y-84025499D01*
X218177447Y-83418457D01*
X218239759Y-83384431D01*
X218277743Y-83382051D01*
X218291185Y-83383251D01*
X218291191Y-83383251D01*
X218293978Y-83383500D01*
X219092886Y-83383500D01*
X219188106Y-83372398D01*
X219218371Y-83368870D01*
X219218372Y-83368870D01*
X219225643Y-83368022D01*
X219232521Y-83365526D01*
X219232523Y-83365525D01*
X219384985Y-83310184D01*
X219391864Y-83307687D01*
X219539747Y-83210731D01*
X219661358Y-83082355D01*
X219679981Y-83050293D01*
X219731492Y-83001434D01*
X219801240Y-82988180D01*
X219867082Y-83014739D01*
X219888016Y-83035739D01*
X219889925Y-83038169D01*
X219889930Y-83038174D01*
X219893635Y-83042891D01*
X219898165Y-83046822D01*
X219898166Y-83046823D01*
X220048856Y-83177587D01*
X220048861Y-83177591D01*
X220053387Y-83181518D01*
X220236471Y-83287434D01*
X220242147Y-83289405D01*
X220430607Y-83354850D01*
X220430610Y-83354851D01*
X220436281Y-83356820D01*
X220561959Y-83375043D01*
X220639666Y-83386310D01*
X220639669Y-83386310D01*
X220645606Y-83387171D01*
X220856894Y-83377391D01*
X220988460Y-83345683D01*
X221056687Y-83329241D01*
X221056689Y-83329240D01*
X221062520Y-83327835D01*
X221067978Y-83325353D01*
X221067982Y-83325352D01*
X221184776Y-83272249D01*
X221255066Y-83240290D01*
X221427584Y-83117914D01*
X221467685Y-83076024D01*
X221569698Y-82969460D01*
X221569702Y-82969455D01*
X221573848Y-82965124D01*
X221604758Y-82917254D01*
X221685330Y-82792469D01*
X221685331Y-82792466D01*
X221688582Y-82787432D01*
X221767646Y-82591251D01*
X221768794Y-82585370D01*
X221768796Y-82585365D01*
X221807315Y-82388117D01*
X221808186Y-82383659D01*
X221808500Y-82377238D01*
X221808500Y-81672594D01*
X221793411Y-81514442D01*
X221788923Y-81499145D01*
X221735557Y-81317235D01*
X221735556Y-81317233D01*
X221733869Y-81311482D01*
X221725487Y-81295207D01*
X221639768Y-81128773D01*
X221639766Y-81128770D01*
X221637022Y-81123442D01*
X221506365Y-80957109D01*
X221468183Y-80923976D01*
X221351144Y-80822413D01*
X221351139Y-80822409D01*
X221346613Y-80818482D01*
X221163529Y-80712566D01*
X221098016Y-80689816D01*
X220969393Y-80645150D01*
X220969390Y-80645149D01*
X220963719Y-80643180D01*
X220828452Y-80623567D01*
X220760334Y-80613690D01*
X220760331Y-80613690D01*
X220754394Y-80612829D01*
X220543106Y-80622609D01*
X220411540Y-80654317D01*
X220343313Y-80670759D01*
X220343311Y-80670760D01*
X220337480Y-80672165D01*
X220332022Y-80674647D01*
X220332018Y-80674648D01*
X220284340Y-80696326D01*
X220144934Y-80759710D01*
X219972416Y-80882086D01*
X219889930Y-80968253D01*
X219880895Y-80977691D01*
X219819340Y-81013068D01*
X219748431Y-81009549D01*
X219690680Y-80968253D01*
X219684505Y-80959646D01*
X219639743Y-80891372D01*
X219639742Y-80891371D01*
X219635731Y-80885253D01*
X219507355Y-80763642D01*
X219354445Y-80674825D01*
X219185204Y-80623567D01*
X219178764Y-80622992D01*
X219178763Y-80622992D01*
X219108815Y-80616749D01*
X219108809Y-80616749D01*
X219106022Y-80616500D01*
X218307114Y-80616500D01*
X218211894Y-80627602D01*
X218181629Y-80631130D01*
X218181628Y-80631130D01*
X218174357Y-80631978D01*
X218167479Y-80634474D01*
X218167477Y-80634475D01*
X218056315Y-80674825D01*
X218008136Y-80692313D01*
X217860253Y-80789269D01*
X217738642Y-80917645D01*
X217649825Y-81070555D01*
X217598567Y-81239796D01*
X217597992Y-81246236D01*
X217597992Y-81246237D01*
X217592514Y-81307620D01*
X217591500Y-81318978D01*
X217591500Y-82160406D01*
X217571498Y-82228527D01*
X217554595Y-82249501D01*
X216507487Y-83296609D01*
X216499399Y-83303969D01*
X216493005Y-83308027D01*
X216487580Y-83313804D01*
X216447131Y-83356878D01*
X216444376Y-83359720D01*
X216424062Y-83380034D01*
X216421417Y-83383445D01*
X216413713Y-83392465D01*
X216383443Y-83424699D01*
X216379626Y-83431643D01*
X216379624Y-83431645D01*
X216373682Y-83442453D01*
X216362828Y-83458977D01*
X216350417Y-83474977D01*
X216347270Y-83482248D01*
X216347270Y-83482249D01*
X216332859Y-83515551D01*
X216327638Y-83526207D01*
X216306338Y-83564952D01*
X216304366Y-83572635D01*
X216304365Y-83572636D01*
X216301301Y-83584568D01*
X216294897Y-83603272D01*
X216290001Y-83614585D01*
X216289999Y-83614592D01*
X216286852Y-83621864D01*
X216285613Y-83629688D01*
X216285612Y-83629691D01*
X216279935Y-83665535D01*
X216277528Y-83677156D01*
X216268013Y-83714218D01*
X216266535Y-83719975D01*
X216266500Y-83720531D01*
X216266500Y-83740452D01*
X216264949Y-83760162D01*
X216261816Y-83779944D01*
X216262562Y-83787836D01*
X216265941Y-83823582D01*
X216266500Y-83835440D01*
X216266500Y-86257499D01*
X216246498Y-86325620D01*
X216192842Y-86372113D01*
X216122568Y-86382217D01*
X216093098Y-86374243D01*
X216092746Y-86374100D01*
X216087982Y-86371678D01*
X215985166Y-86339753D01*
X215872895Y-86304891D01*
X215872889Y-86304890D01*
X215867792Y-86303307D01*
X215762798Y-86289391D01*
X215644515Y-86273714D01*
X215644510Y-86273714D01*
X215639230Y-86273014D01*
X215633900Y-86273214D01*
X215633899Y-86273214D01*
X215524031Y-86277338D01*
X215408831Y-86281663D01*
X215326368Y-86298966D01*
X215188411Y-86327912D01*
X215188408Y-86327913D01*
X215183184Y-86329009D01*
X214968740Y-86413697D01*
X214771631Y-86533306D01*
X214767601Y-86536803D01*
X214674426Y-86617656D01*
X214597492Y-86684415D01*
X214594109Y-86688541D01*
X214594105Y-86688545D01*
X214521768Y-86776767D01*
X214451304Y-86862705D01*
X214337245Y-87063077D01*
X214258578Y-87279802D01*
X214257629Y-87285051D01*
X214257628Y-87285054D01*
X214218739Y-87500111D01*
X214217551Y-87506683D01*
X214217282Y-87534731D01*
X214215536Y-87716637D01*
X214215338Y-87737233D01*
X214252002Y-87964861D01*
X214326494Y-88183056D01*
X214436685Y-88385580D01*
X214579424Y-88566644D01*
X214639034Y-88620411D01*
X214676219Y-88680888D01*
X214674805Y-88751871D01*
X214635240Y-88810821D01*
X214590138Y-88834868D01*
X214520330Y-88855365D01*
X214520328Y-88855366D01*
X214511684Y-88857904D01*
X214491350Y-88870972D01*
X214396309Y-88932051D01*
X214396306Y-88932053D01*
X214388729Y-88936923D01*
X214382828Y-88943733D01*
X214298918Y-89040569D01*
X214298916Y-89040572D01*
X214293016Y-89047381D01*
X214232300Y-89180330D01*
X214231018Y-89189245D01*
X214231018Y-89189246D01*
X214212139Y-89320552D01*
X214212138Y-89320559D01*
X214211500Y-89325000D01*
X214211500Y-91025000D01*
X214216727Y-91098079D01*
X214236149Y-91164225D01*
X214253537Y-91223442D01*
X214257904Y-91238316D01*
X214262775Y-91245895D01*
X214332051Y-91353691D01*
X214332053Y-91353694D01*
X214336923Y-91361271D01*
X214343733Y-91367172D01*
X214439029Y-91449747D01*
X214477412Y-91509473D01*
X214477412Y-91580470D01*
X214439028Y-91640196D01*
X214407765Y-91660077D01*
X214372745Y-91675669D01*
X214241283Y-91734199D01*
X214241276Y-91734203D01*
X214235250Y-91736886D01*
X214229909Y-91740766D01*
X214229908Y-91740767D01*
X214086093Y-91845254D01*
X214086091Y-91845256D01*
X214080749Y-91849137D01*
X214076328Y-91854047D01*
X214076327Y-91854048D01*
X213970958Y-91971073D01*
X213952963Y-91991058D01*
X213857476Y-92156446D01*
X213798462Y-92338073D01*
X213778500Y-92528000D01*
X211783059Y-92528000D01*
X211762092Y-92512767D01*
X211762091Y-92512766D01*
X211756750Y-92508886D01*
X211750722Y-92506202D01*
X211750720Y-92506201D01*
X211588318Y-92433895D01*
X211588317Y-92433895D01*
X211582287Y-92431210D01*
X211488887Y-92411357D01*
X211401944Y-92392876D01*
X211401939Y-92392876D01*
X211395487Y-92391504D01*
X211204513Y-92391504D01*
X211198061Y-92392876D01*
X211198056Y-92392876D01*
X211111113Y-92411357D01*
X211017713Y-92431210D01*
X211011683Y-92433895D01*
X211011682Y-92433895D01*
X210849280Y-92506201D01*
X210849278Y-92506202D01*
X210843250Y-92508886D01*
X210837909Y-92512766D01*
X210837908Y-92512767D01*
X210694093Y-92617254D01*
X210694091Y-92617256D01*
X210688749Y-92621137D01*
X210595400Y-92724812D01*
X210534957Y-92762050D01*
X210501766Y-92766500D01*
X208205937Y-92766500D01*
X208137816Y-92746498D01*
X208091323Y-92692842D01*
X208082273Y-92616350D01*
X208108186Y-92483659D01*
X208108500Y-92477238D01*
X208108500Y-91772594D01*
X208093411Y-91614442D01*
X208065912Y-91520705D01*
X208035557Y-91417235D01*
X208035556Y-91417233D01*
X208033869Y-91411482D01*
X208031122Y-91406148D01*
X207939768Y-91228773D01*
X207939766Y-91228770D01*
X207937022Y-91223442D01*
X207806365Y-91057109D01*
X207801834Y-91053177D01*
X207651144Y-90922413D01*
X207651139Y-90922409D01*
X207646613Y-90918482D01*
X207463529Y-90812566D01*
X207398016Y-90789816D01*
X207269393Y-90745150D01*
X207269390Y-90745149D01*
X207263719Y-90743180D01*
X207124928Y-90723056D01*
X207060334Y-90713690D01*
X207060331Y-90713690D01*
X207054394Y-90712829D01*
X206843106Y-90722609D01*
X206721434Y-90751932D01*
X206643313Y-90770759D01*
X206643311Y-90770760D01*
X206637480Y-90772165D01*
X206632022Y-90774647D01*
X206632018Y-90774648D01*
X206584340Y-90796326D01*
X206444934Y-90859710D01*
X206272416Y-90982086D01*
X206189930Y-91068253D01*
X206180895Y-91077691D01*
X206119340Y-91113068D01*
X206048431Y-91109549D01*
X205990680Y-91068253D01*
X205984505Y-91059646D01*
X205939743Y-90991372D01*
X205939742Y-90991371D01*
X205935731Y-90985253D01*
X205807355Y-90863642D01*
X205654445Y-90774825D01*
X205485204Y-90723567D01*
X205478764Y-90722992D01*
X205478763Y-90722992D01*
X205408815Y-90716749D01*
X205408809Y-90716749D01*
X205406022Y-90716500D01*
X204607114Y-90716500D01*
X204511894Y-90727602D01*
X204481629Y-90731130D01*
X204481628Y-90731130D01*
X204474357Y-90731978D01*
X204467479Y-90734474D01*
X204467477Y-90734475D01*
X204356315Y-90774825D01*
X204308136Y-90792313D01*
X204211915Y-90855398D01*
X204196910Y-90865236D01*
X204160253Y-90889269D01*
X204038642Y-91017645D01*
X203949825Y-91170555D01*
X203898567Y-91339796D01*
X203897992Y-91346236D01*
X203897992Y-91346237D01*
X203892027Y-91413077D01*
X203891500Y-91418978D01*
X200501631Y-91418978D01*
X200502927Y-78633986D01*
X200522936Y-78565869D01*
X200576596Y-78519381D01*
X200628927Y-78508000D01*
X258917379Y-78508000D01*
X258939027Y-78509874D01*
G37*
G04 #@! TD.AperFunction*
G04 #@! TA.AperFunction,Conductor*
G36*
X127942121Y-78528002D02*
G01*
X127988614Y-78581658D01*
X128000000Y-78634000D01*
X128000000Y-107366000D01*
X127979998Y-107434121D01*
X127926342Y-107480614D01*
X127874000Y-107492000D01*
X106126000Y-107492000D01*
X106057879Y-107471998D01*
X106011386Y-107418342D01*
X106000000Y-107366000D01*
X106000000Y-78634000D01*
X106020002Y-78565879D01*
X106073658Y-78519386D01*
X106126000Y-78508000D01*
X127874000Y-78508000D01*
X127942121Y-78528002D01*
G37*
G04 #@! TD.AperFunction*
G04 #@! TA.AperFunction,Conductor*
G36*
X199542121Y-78528002D02*
G01*
X199588614Y-78581658D01*
X199600000Y-78634000D01*
X199600000Y-107274000D01*
X199579998Y-107342121D01*
X199526342Y-107388614D01*
X199474000Y-107400000D01*
X176926000Y-107400000D01*
X176857879Y-107379998D01*
X176811386Y-107326342D01*
X176800000Y-107274000D01*
X176800000Y-78634000D01*
X176820002Y-78565879D01*
X176873658Y-78519386D01*
X176926000Y-78508000D01*
X199474000Y-78508000D01*
X199542121Y-78528002D01*
G37*
G04 #@! TD.AperFunction*
M02*
