G04 #@! TF.GenerationSoftware,KiCad,Pcbnew,(5.99.0-8941-ge2f8b1a4b1)*
G04 #@! TF.CreationDate,2021-03-10T18:45:48+13:00*
G04 #@! TF.ProjectId,diyBMS-Leaf,64697942-4d53-42d4-9c65-61662e6b6963,2.01*
G04 #@! TF.SameCoordinates,Original*
G04 #@! TF.FileFunction,Legend,Bot*
G04 #@! TF.FilePolarity,Positive*
%FSLAX46Y46*%
G04 Gerber Fmt 4.6, Leading zero omitted, Abs format (unit mm)*
G04 Created by KiCad (PCBNEW (5.99.0-8941-ge2f8b1a4b1)) date 2021-03-10 18:45:48*
%MOMM*%
%LPD*%
G01*
G04 APERTURE LIST*
%ADD10C,0.300000*%
G04 APERTURE END LIST*
D10*
X185664283Y-80485357D02*
X185449997Y-80556785D01*
X185378569Y-80628214D01*
X185307140Y-80771071D01*
X185307140Y-80985357D01*
X185378569Y-81128214D01*
X185449997Y-81199642D01*
X185592855Y-81271071D01*
X186164283Y-81271071D01*
X186164283Y-79771071D01*
X185664283Y-79771071D01*
X185521426Y-79842500D01*
X185449997Y-79913928D01*
X185378569Y-80056785D01*
X185378569Y-80199642D01*
X185449997Y-80342500D01*
X185521426Y-80413928D01*
X185664283Y-80485357D01*
X186164283Y-80485357D01*
X184664283Y-81271071D02*
X184664283Y-79771071D01*
X184164283Y-80842500D01*
X183664283Y-79771071D01*
X183664283Y-81271071D01*
X183021426Y-81199642D02*
X182807140Y-81271071D01*
X182449997Y-81271071D01*
X182307140Y-81199642D01*
X182235712Y-81128214D01*
X182164283Y-80985357D01*
X182164283Y-80842500D01*
X182235712Y-80699642D01*
X182307140Y-80628214D01*
X182449997Y-80556785D01*
X182735712Y-80485357D01*
X182878569Y-80413928D01*
X182949997Y-80342500D01*
X183021426Y-80199642D01*
X183021426Y-80056785D01*
X182949997Y-79913928D01*
X182878569Y-79842500D01*
X182735712Y-79771071D01*
X182378569Y-79771071D01*
X182164283Y-79842500D01*
X180592855Y-80271071D02*
X180021426Y-80271071D01*
X180378569Y-81271071D02*
X180378569Y-79985357D01*
X180307140Y-79842500D01*
X180164283Y-79771071D01*
X180021426Y-79771071D01*
X179307140Y-81271071D02*
X179449998Y-81199642D01*
X179521426Y-81128214D01*
X179592855Y-80985357D01*
X179592855Y-80556785D01*
X179521426Y-80413928D01*
X179449998Y-80342500D01*
X179307140Y-80271071D01*
X179092855Y-80271071D01*
X178949998Y-80342500D01*
X178878569Y-80413928D01*
X178807140Y-80556785D01*
X178807140Y-80985357D01*
X178878569Y-81128214D01*
X178949998Y-81199642D01*
X179092855Y-81271071D01*
X179307140Y-81271071D01*
X178164283Y-81271071D02*
X178164283Y-80271071D01*
X178164283Y-80556785D02*
X178092855Y-80413928D01*
X178021426Y-80342500D01*
X177878569Y-80271071D01*
X177735712Y-80271071D01*
X175378569Y-81271071D02*
X176092855Y-81271071D01*
X176092855Y-79771071D01*
X174878569Y-80485357D02*
X174378569Y-80485357D01*
X174164283Y-81271071D02*
X174878569Y-81271071D01*
X174878569Y-79771071D01*
X174164283Y-79771071D01*
X173592855Y-80842500D02*
X172878569Y-80842500D01*
X173735712Y-81271071D02*
X173235712Y-79771071D01*
X172735712Y-81271071D01*
X171735712Y-80485357D02*
X172235712Y-80485357D01*
X172235712Y-81271071D02*
X172235712Y-79771071D01*
X171521426Y-79771071D01*
X169807140Y-81271071D02*
X169807140Y-79771071D01*
X169307140Y-80842500D01*
X168807140Y-79771071D01*
X168807140Y-81271071D01*
X167878569Y-81271071D02*
X168021426Y-81199642D01*
X168092855Y-81128214D01*
X168164283Y-80985357D01*
X168164283Y-80556785D01*
X168092855Y-80413928D01*
X168021426Y-80342500D01*
X167878569Y-80271071D01*
X167664283Y-80271071D01*
X167521426Y-80342500D01*
X167449998Y-80413928D01*
X167378569Y-80556785D01*
X167378569Y-80985357D01*
X167449998Y-81128214D01*
X167521426Y-81199642D01*
X167664283Y-81271071D01*
X167878569Y-81271071D01*
X166092855Y-81271071D02*
X166092855Y-79771071D01*
X166092855Y-81199642D02*
X166235712Y-81271071D01*
X166521426Y-81271071D01*
X166664283Y-81199642D01*
X166735712Y-81128214D01*
X166807140Y-80985357D01*
X166807140Y-80556785D01*
X166735712Y-80413928D01*
X166664283Y-80342500D01*
X166521426Y-80271071D01*
X166235712Y-80271071D01*
X166092855Y-80342500D01*
X164735712Y-80271071D02*
X164735712Y-81271071D01*
X165378569Y-80271071D02*
X165378569Y-81056785D01*
X165307140Y-81199642D01*
X165164283Y-81271071D01*
X164949998Y-81271071D01*
X164807140Y-81199642D01*
X164735712Y-81128214D01*
X163807140Y-81271071D02*
X163949998Y-81199642D01*
X164021426Y-81056785D01*
X164021426Y-79771071D01*
X162664283Y-81199642D02*
X162807140Y-81271071D01*
X163092855Y-81271071D01*
X163235712Y-81199642D01*
X163307140Y-81056785D01*
X163307140Y-80485357D01*
X163235712Y-80342500D01*
X163092855Y-80271071D01*
X162807140Y-80271071D01*
X162664283Y-80342500D01*
X162592855Y-80485357D01*
X162592855Y-80628214D01*
X163307140Y-80771071D01*
X159807140Y-80271071D02*
X159449998Y-81271071D01*
X159092855Y-80271071D01*
X158592855Y-79913928D02*
X158521426Y-79842500D01*
X158378569Y-79771071D01*
X158021426Y-79771071D01*
X157878569Y-79842500D01*
X157807140Y-79913928D01*
X157735712Y-80056785D01*
X157735712Y-80199642D01*
X157807140Y-80413928D01*
X158664283Y-81271071D01*
X157735712Y-81271071D01*
X157092855Y-81128214D02*
X157021426Y-81199642D01*
X157092855Y-81271071D01*
X157164283Y-81199642D01*
X157092855Y-81128214D01*
X157092855Y-81271071D01*
X156092855Y-79771071D02*
X155949998Y-79771071D01*
X155807140Y-79842500D01*
X155735712Y-79913928D01*
X155664283Y-80056785D01*
X155592855Y-80342500D01*
X155592855Y-80699642D01*
X155664283Y-80985357D01*
X155735712Y-81128214D01*
X155807140Y-81199642D01*
X155949998Y-81271071D01*
X156092855Y-81271071D01*
X156235712Y-81199642D01*
X156307140Y-81128214D01*
X156378569Y-80985357D01*
X156449998Y-80699642D01*
X156449998Y-80342500D01*
X156378569Y-80056785D01*
X156307140Y-79913928D01*
X156235712Y-79842500D01*
X156092855Y-79771071D01*
X154164283Y-81271071D02*
X155021426Y-81271071D01*
X154592855Y-81271071D02*
X154592855Y-79771071D01*
X154735712Y-79985357D01*
X154878569Y-80128214D01*
X155021426Y-80199642D01*
X152378569Y-80699642D02*
X151235712Y-80699642D01*
X148949998Y-79771071D02*
X148949998Y-80842500D01*
X149021426Y-81056785D01*
X149164283Y-81199642D01*
X149378569Y-81271071D01*
X149521426Y-81271071D01*
X148021426Y-81271071D02*
X148164283Y-81199642D01*
X148235712Y-81128214D01*
X148307140Y-80985357D01*
X148307140Y-80556785D01*
X148235712Y-80413928D01*
X148164283Y-80342500D01*
X148021426Y-80271071D01*
X147807140Y-80271071D01*
X147664283Y-80342500D01*
X147592855Y-80413928D01*
X147521426Y-80556785D01*
X147521426Y-80985357D01*
X147592855Y-81128214D01*
X147664283Y-81199642D01*
X147807140Y-81271071D01*
X148021426Y-81271071D01*
X146878569Y-81271071D02*
X146878569Y-79771071D01*
X146235712Y-81271071D02*
X146235712Y-80485357D01*
X146307140Y-80342500D01*
X146449998Y-80271071D01*
X146664283Y-80271071D01*
X146807140Y-80342500D01*
X146878569Y-80413928D01*
X145307140Y-81271071D02*
X145449998Y-81199642D01*
X145521426Y-81128214D01*
X145592855Y-80985357D01*
X145592855Y-80556785D01*
X145521426Y-80413928D01*
X145449998Y-80342500D01*
X145307140Y-80271071D01*
X145092855Y-80271071D01*
X144949998Y-80342500D01*
X144878569Y-80413928D01*
X144807140Y-80556785D01*
X144807140Y-80985357D01*
X144878569Y-81128214D01*
X144949998Y-81199642D01*
X145092855Y-81271071D01*
X145307140Y-81271071D01*
X143235712Y-79771071D02*
X142378569Y-79771071D01*
X142807140Y-81271071D02*
X142807140Y-79771071D01*
X141307140Y-81199642D02*
X141449998Y-81271071D01*
X141735712Y-81271071D01*
X141878569Y-81199642D01*
X141949998Y-81056785D01*
X141949998Y-80485357D01*
X141878569Y-80342500D01*
X141735712Y-80271071D01*
X141449998Y-80271071D01*
X141307140Y-80342500D01*
X141235712Y-80485357D01*
X141235712Y-80628214D01*
X141949998Y-80771071D01*
X139949998Y-81199642D02*
X140092855Y-81271071D01*
X140378569Y-81271071D01*
X140521426Y-81199642D01*
X140592855Y-81128214D01*
X140664283Y-80985357D01*
X140664283Y-80556785D01*
X140592855Y-80413928D01*
X140521426Y-80342500D01*
X140378569Y-80271071D01*
X140092855Y-80271071D01*
X139949998Y-80342500D01*
X139307140Y-81271071D02*
X139307140Y-79771071D01*
X138664283Y-81271071D02*
X138664283Y-80485357D01*
X138735712Y-80342500D01*
X138878569Y-80271071D01*
X139092855Y-80271071D01*
X139235712Y-80342500D01*
X139307140Y-80413928D01*
X137949998Y-80271071D02*
X137949998Y-81271071D01*
X137949998Y-80413928D02*
X137878569Y-80342500D01*
X137735712Y-80271071D01*
X137521426Y-80271071D01*
X137378569Y-80342500D01*
X137307140Y-80485357D01*
X137307140Y-81271071D01*
X136378569Y-81271071D02*
X136521426Y-81199642D01*
X136592855Y-81128214D01*
X136664283Y-80985357D01*
X136664283Y-80556785D01*
X136592855Y-80413928D01*
X136521426Y-80342500D01*
X136378569Y-80271071D01*
X136164283Y-80271071D01*
X136021426Y-80342500D01*
X135949998Y-80413928D01*
X135878569Y-80556785D01*
X135878569Y-80985357D01*
X135949998Y-81128214D01*
X136021426Y-81199642D01*
X136164283Y-81271071D01*
X136378569Y-81271071D01*
X135021426Y-81271071D02*
X135164283Y-81199642D01*
X135235712Y-81056785D01*
X135235712Y-79771071D01*
X134235712Y-81271071D02*
X134378569Y-81199642D01*
X134449998Y-81128214D01*
X134521426Y-80985357D01*
X134521426Y-80556785D01*
X134449998Y-80413928D01*
X134378569Y-80342500D01*
X134235712Y-80271071D01*
X134021426Y-80271071D01*
X133878569Y-80342500D01*
X133807140Y-80413928D01*
X133735712Y-80556785D01*
X133735712Y-80985357D01*
X133807140Y-81128214D01*
X133878569Y-81199642D01*
X134021426Y-81271071D01*
X134235712Y-81271071D01*
X132449998Y-80271071D02*
X132449998Y-81485357D01*
X132521426Y-81628214D01*
X132592855Y-81699642D01*
X132735712Y-81771071D01*
X132949998Y-81771071D01*
X133092855Y-81699642D01*
X132449998Y-81199642D02*
X132592855Y-81271071D01*
X132878569Y-81271071D01*
X133021426Y-81199642D01*
X133092855Y-81128214D01*
X133164283Y-80985357D01*
X133164283Y-80556785D01*
X133092855Y-80413928D01*
X133021426Y-80342500D01*
X132878569Y-80271071D01*
X132592855Y-80271071D01*
X132449998Y-80342500D01*
X131878569Y-80271071D02*
X131521426Y-81271071D01*
X131164283Y-80271071D02*
X131521426Y-81271071D01*
X131664283Y-81628214D01*
X131735712Y-81699642D01*
X131878569Y-81771071D01*
X129449998Y-81271071D02*
X129449998Y-79771071D01*
X128735712Y-80271071D02*
X128735712Y-81271071D01*
X128735712Y-80413928D02*
X128664283Y-80342500D01*
X128521426Y-80271071D01*
X128307140Y-80271071D01*
X128164283Y-80342500D01*
X128092855Y-80485357D01*
X128092855Y-81271071D01*
X126735712Y-81199642D02*
X126878569Y-81271071D01*
X127164283Y-81271071D01*
X127307140Y-81199642D01*
X127378569Y-81128214D01*
X127449998Y-80985357D01*
X127449998Y-80556785D01*
X127378569Y-80413928D01*
X127307140Y-80342500D01*
X127164283Y-80271071D01*
X126878569Y-80271071D01*
X126735712Y-80342500D01*
X126092855Y-81128214D02*
X126021426Y-81199642D01*
X126092855Y-81271071D01*
X126164283Y-81199642D01*
X126092855Y-81128214D01*
X126092855Y-81271071D01*
X124307140Y-79913928D02*
X124235712Y-79842500D01*
X124092855Y-79771071D01*
X123735712Y-79771071D01*
X123592855Y-79842500D01*
X123521426Y-79913928D01*
X123449998Y-80056785D01*
X123449998Y-80199642D01*
X123521426Y-80413928D01*
X124378569Y-81271071D01*
X123449998Y-81271071D01*
X122521426Y-79771071D02*
X122378569Y-79771071D01*
X122235712Y-79842500D01*
X122164283Y-79913928D01*
X122092855Y-80056785D01*
X122021426Y-80342500D01*
X122021426Y-80699642D01*
X122092855Y-80985357D01*
X122164283Y-81128214D01*
X122235712Y-81199642D01*
X122378569Y-81271071D01*
X122521426Y-81271071D01*
X122664283Y-81199642D01*
X122735712Y-81128214D01*
X122807140Y-80985357D01*
X122878569Y-80699642D01*
X122878569Y-80342500D01*
X122807140Y-80056785D01*
X122735712Y-79913928D01*
X122664283Y-79842500D01*
X122521426Y-79771071D01*
X121449998Y-79913928D02*
X121378569Y-79842500D01*
X121235712Y-79771071D01*
X120878569Y-79771071D01*
X120735712Y-79842500D01*
X120664283Y-79913928D01*
X120592855Y-80056785D01*
X120592855Y-80199642D01*
X120664283Y-80413928D01*
X121521426Y-81271071D01*
X120592855Y-81271071D01*
X119164283Y-81271071D02*
X120021426Y-81271071D01*
X119592855Y-81271071D02*
X119592855Y-79771071D01*
X119735712Y-79985357D01*
X119878569Y-80128214D01*
X120021426Y-80199642D01*
X192057140Y-82900357D02*
X191842855Y-82971785D01*
X191771426Y-83043214D01*
X191699997Y-83186071D01*
X191699997Y-83400357D01*
X191771426Y-83543214D01*
X191842855Y-83614642D01*
X191985712Y-83686071D01*
X192557140Y-83686071D01*
X192557140Y-82186071D01*
X192057140Y-82186071D01*
X191914283Y-82257500D01*
X191842855Y-82328928D01*
X191771426Y-82471785D01*
X191771426Y-82614642D01*
X191842855Y-82757500D01*
X191914283Y-82828928D01*
X192057140Y-82900357D01*
X192557140Y-82900357D01*
X190414283Y-83686071D02*
X190414283Y-82900357D01*
X190485712Y-82757500D01*
X190628569Y-82686071D01*
X190914283Y-82686071D01*
X191057140Y-82757500D01*
X190414283Y-83614642D02*
X190557140Y-83686071D01*
X190914283Y-83686071D01*
X191057140Y-83614642D01*
X191128569Y-83471785D01*
X191128569Y-83328928D01*
X191057140Y-83186071D01*
X190914283Y-83114642D01*
X190557140Y-83114642D01*
X190414283Y-83043214D01*
X189771426Y-83614642D02*
X189628569Y-83686071D01*
X189342855Y-83686071D01*
X189199998Y-83614642D01*
X189128569Y-83471785D01*
X189128569Y-83400357D01*
X189199998Y-83257500D01*
X189342855Y-83186071D01*
X189557140Y-83186071D01*
X189699998Y-83114642D01*
X189771426Y-82971785D01*
X189771426Y-82900357D01*
X189699998Y-82757500D01*
X189557140Y-82686071D01*
X189342855Y-82686071D01*
X189199998Y-82757500D01*
X187914283Y-83614642D02*
X188057140Y-83686071D01*
X188342855Y-83686071D01*
X188485712Y-83614642D01*
X188557140Y-83471785D01*
X188557140Y-82900357D01*
X188485712Y-82757500D01*
X188342855Y-82686071D01*
X188057140Y-82686071D01*
X187914283Y-82757500D01*
X187842855Y-82900357D01*
X187842855Y-83043214D01*
X188557140Y-83186071D01*
X186557140Y-83686071D02*
X186557140Y-82186071D01*
X186557140Y-83614642D02*
X186699998Y-83686071D01*
X186985712Y-83686071D01*
X187128569Y-83614642D01*
X187199998Y-83543214D01*
X187271426Y-83400357D01*
X187271426Y-82971785D01*
X187199998Y-82828928D01*
X187128569Y-82757500D01*
X186985712Y-82686071D01*
X186699998Y-82686071D01*
X186557140Y-82757500D01*
X184485712Y-83686071D02*
X184628569Y-83614642D01*
X184699998Y-83543214D01*
X184771426Y-83400357D01*
X184771426Y-82971785D01*
X184699998Y-82828928D01*
X184628569Y-82757500D01*
X184485712Y-82686071D01*
X184271426Y-82686071D01*
X184128569Y-82757500D01*
X184057140Y-82828928D01*
X183985712Y-82971785D01*
X183985712Y-83400357D01*
X184057140Y-83543214D01*
X184128569Y-83614642D01*
X184271426Y-83686071D01*
X184485712Y-83686071D01*
X183342855Y-82686071D02*
X183342855Y-83686071D01*
X183342855Y-82828928D02*
X183271426Y-82757500D01*
X183128569Y-82686071D01*
X182914283Y-82686071D01*
X182771426Y-82757500D01*
X182699998Y-82900357D01*
X182699998Y-83686071D01*
X180199998Y-83686071D02*
X180199998Y-82186071D01*
X180199998Y-83614642D02*
X180342855Y-83686071D01*
X180628569Y-83686071D01*
X180771426Y-83614642D01*
X180842855Y-83543214D01*
X180914283Y-83400357D01*
X180914283Y-82971785D01*
X180842855Y-82828928D01*
X180771426Y-82757500D01*
X180628569Y-82686071D01*
X180342855Y-82686071D01*
X180199998Y-82757500D01*
X179485712Y-83686071D02*
X179485712Y-82686071D01*
X179485712Y-82186071D02*
X179557140Y-82257500D01*
X179485712Y-82328928D01*
X179414283Y-82257500D01*
X179485712Y-82186071D01*
X179485712Y-82328928D01*
X178914283Y-82686071D02*
X178557140Y-83686071D01*
X178199998Y-82686071D02*
X178557140Y-83686071D01*
X178699998Y-84043214D01*
X178771426Y-84114642D01*
X178914283Y-84186071D01*
X175985712Y-82900357D02*
X175771426Y-82971785D01*
X175699998Y-83043214D01*
X175628569Y-83186071D01*
X175628569Y-83400357D01*
X175699998Y-83543214D01*
X175771426Y-83614642D01*
X175914283Y-83686071D01*
X176485712Y-83686071D01*
X176485712Y-82186071D01*
X175985712Y-82186071D01*
X175842855Y-82257500D01*
X175771426Y-82328928D01*
X175699998Y-82471785D01*
X175699998Y-82614642D01*
X175771426Y-82757500D01*
X175842855Y-82828928D01*
X175985712Y-82900357D01*
X176485712Y-82900357D01*
X174985712Y-83686071D02*
X174985712Y-82186071D01*
X174485712Y-83257500D01*
X173985712Y-82186071D01*
X173985712Y-83686071D01*
X173342855Y-83614642D02*
X173128569Y-83686071D01*
X172771426Y-83686071D01*
X172628569Y-83614642D01*
X172557140Y-83543214D01*
X172485712Y-83400357D01*
X172485712Y-83257500D01*
X172557140Y-83114642D01*
X172628569Y-83043214D01*
X172771426Y-82971785D01*
X173057140Y-82900357D01*
X173199998Y-82828928D01*
X173271426Y-82757500D01*
X173342855Y-82614642D01*
X173342855Y-82471785D01*
X173271426Y-82328928D01*
X173199998Y-82257500D01*
X173057140Y-82186071D01*
X172699998Y-82186071D01*
X172485712Y-82257500D01*
X170842855Y-82686071D02*
X170485712Y-83686071D01*
X170128569Y-82686071D01*
X168985712Y-83614642D02*
X169128569Y-83686071D01*
X169414283Y-83686071D01*
X169557140Y-83614642D01*
X169628569Y-83471785D01*
X169628569Y-82900357D01*
X169557140Y-82757500D01*
X169414283Y-82686071D01*
X169128569Y-82686071D01*
X168985712Y-82757500D01*
X168914283Y-82900357D01*
X168914283Y-83043214D01*
X169628569Y-83186071D01*
X168271426Y-83686071D02*
X168271426Y-82686071D01*
X168271426Y-82971785D02*
X168199998Y-82828928D01*
X168128569Y-82757500D01*
X167985712Y-82686071D01*
X167842855Y-82686071D01*
X167414283Y-83614642D02*
X167271426Y-83686071D01*
X166985712Y-83686071D01*
X166842855Y-83614642D01*
X166771426Y-83471785D01*
X166771426Y-83400357D01*
X166842855Y-83257500D01*
X166985712Y-83186071D01*
X167199998Y-83186071D01*
X167342855Y-83114642D01*
X167414283Y-82971785D01*
X167414283Y-82900357D01*
X167342855Y-82757500D01*
X167199998Y-82686071D01*
X166985712Y-82686071D01*
X166842855Y-82757500D01*
X166128569Y-83686071D02*
X166128569Y-82686071D01*
X166128569Y-82186071D02*
X166199998Y-82257500D01*
X166128569Y-82328928D01*
X166057140Y-82257500D01*
X166128569Y-82186071D01*
X166128569Y-82328928D01*
X165199998Y-83686071D02*
X165342855Y-83614642D01*
X165414283Y-83543214D01*
X165485712Y-83400357D01*
X165485712Y-82971785D01*
X165414283Y-82828928D01*
X165342855Y-82757500D01*
X165199998Y-82686071D01*
X164985712Y-82686071D01*
X164842855Y-82757500D01*
X164771426Y-82828928D01*
X164699998Y-82971785D01*
X164699998Y-83400357D01*
X164771426Y-83543214D01*
X164842855Y-83614642D01*
X164985712Y-83686071D01*
X165199998Y-83686071D01*
X164057140Y-82686071D02*
X164057140Y-83686071D01*
X164057140Y-82828928D02*
X163985712Y-82757500D01*
X163842855Y-82686071D01*
X163628569Y-82686071D01*
X163485712Y-82757500D01*
X163414283Y-82900357D01*
X163414283Y-83686071D01*
X160914283Y-82686071D02*
X160914283Y-83686071D01*
X161271426Y-82114642D02*
X161628569Y-83186071D01*
X160699998Y-83186071D01*
X159199998Y-82686071D02*
X158628569Y-82686071D01*
X158985712Y-83686071D02*
X158985712Y-82400357D01*
X158914283Y-82257500D01*
X158771426Y-82186071D01*
X158628569Y-82186071D01*
X157914283Y-83686071D02*
X158057140Y-83614642D01*
X158128569Y-83543214D01*
X158199998Y-83400357D01*
X158199998Y-82971785D01*
X158128569Y-82828928D01*
X158057140Y-82757500D01*
X157914283Y-82686071D01*
X157699998Y-82686071D01*
X157557140Y-82757500D01*
X157485712Y-82828928D01*
X157414283Y-82971785D01*
X157414283Y-83400357D01*
X157485712Y-83543214D01*
X157557140Y-83614642D01*
X157699998Y-83686071D01*
X157914283Y-83686071D01*
X156771426Y-83686071D02*
X156771426Y-82686071D01*
X156771426Y-82971785D02*
X156699998Y-82828928D01*
X156628569Y-82757500D01*
X156485712Y-82686071D01*
X156342855Y-82686071D01*
X154699998Y-83686071D02*
X154699998Y-82186071D01*
X153842855Y-83686071D01*
X153842855Y-82186071D01*
X153128569Y-83686071D02*
X153128569Y-82686071D01*
X153128569Y-82186071D02*
X153199998Y-82257500D01*
X153128569Y-82328928D01*
X153057140Y-82257500D01*
X153128569Y-82186071D01*
X153128569Y-82328928D01*
X152485712Y-83614642D02*
X152342855Y-83686071D01*
X152057140Y-83686071D01*
X151914283Y-83614642D01*
X151842855Y-83471785D01*
X151842855Y-83400357D01*
X151914283Y-83257500D01*
X152057140Y-83186071D01*
X152271426Y-83186071D01*
X152414283Y-83114642D01*
X152485712Y-82971785D01*
X152485712Y-82900357D01*
X152414283Y-82757500D01*
X152271426Y-82686071D01*
X152057140Y-82686071D01*
X151914283Y-82757500D01*
X151271426Y-83614642D02*
X151128569Y-83686071D01*
X150842855Y-83686071D01*
X150699998Y-83614642D01*
X150628569Y-83471785D01*
X150628569Y-83400357D01*
X150699998Y-83257500D01*
X150842855Y-83186071D01*
X151057140Y-83186071D01*
X151199998Y-83114642D01*
X151271426Y-82971785D01*
X151271426Y-82900357D01*
X151199998Y-82757500D01*
X151057140Y-82686071D01*
X150842855Y-82686071D01*
X150699998Y-82757500D01*
X149342855Y-83686071D02*
X149342855Y-82900357D01*
X149414283Y-82757500D01*
X149557140Y-82686071D01*
X149842855Y-82686071D01*
X149985712Y-82757500D01*
X149342855Y-83614642D02*
X149485712Y-83686071D01*
X149842855Y-83686071D01*
X149985712Y-83614642D01*
X150057140Y-83471785D01*
X150057140Y-83328928D01*
X149985712Y-83186071D01*
X149842855Y-83114642D01*
X149485712Y-83114642D01*
X149342855Y-83043214D01*
X148628569Y-82686071D02*
X148628569Y-83686071D01*
X148628569Y-82828928D02*
X148557140Y-82757500D01*
X148414283Y-82686071D01*
X148199998Y-82686071D01*
X148057140Y-82757500D01*
X147985712Y-82900357D01*
X147985712Y-83686071D01*
X145414283Y-83686071D02*
X146128569Y-83686071D01*
X146128569Y-82186071D01*
X144342855Y-83614642D02*
X144485712Y-83686071D01*
X144771426Y-83686071D01*
X144914283Y-83614642D01*
X144985712Y-83471785D01*
X144985712Y-82900357D01*
X144914283Y-82757500D01*
X144771426Y-82686071D01*
X144485712Y-82686071D01*
X144342855Y-82757500D01*
X144271426Y-82900357D01*
X144271426Y-83043214D01*
X144985712Y-83186071D01*
X142985712Y-83686071D02*
X142985712Y-82900357D01*
X143057140Y-82757500D01*
X143199998Y-82686071D01*
X143485712Y-82686071D01*
X143628569Y-82757500D01*
X142985712Y-83614642D02*
X143128569Y-83686071D01*
X143485712Y-83686071D01*
X143628569Y-83614642D01*
X143699998Y-83471785D01*
X143699998Y-83328928D01*
X143628569Y-83186071D01*
X143485712Y-83114642D01*
X143128569Y-83114642D01*
X142985712Y-83043214D01*
X142485712Y-82686071D02*
X141914283Y-82686071D01*
X142271426Y-83686071D02*
X142271426Y-82400357D01*
X142199998Y-82257500D01*
X142057140Y-82186071D01*
X141914283Y-82186071D01*
X139628569Y-83614642D02*
X139771426Y-83686071D01*
X140057140Y-83686071D01*
X140199998Y-83614642D01*
X140271426Y-83543214D01*
X140342855Y-83400357D01*
X140342855Y-82971785D01*
X140271426Y-82828928D01*
X140199998Y-82757500D01*
X140057140Y-82686071D01*
X139771426Y-82686071D01*
X139628569Y-82757500D01*
X138414283Y-83614642D02*
X138557140Y-83686071D01*
X138842855Y-83686071D01*
X138985712Y-83614642D01*
X139057140Y-83471785D01*
X139057140Y-82900357D01*
X138985712Y-82757500D01*
X138842855Y-82686071D01*
X138557140Y-82686071D01*
X138414283Y-82757500D01*
X138342855Y-82900357D01*
X138342855Y-83043214D01*
X139057140Y-83186071D01*
X137485712Y-83686071D02*
X137628569Y-83614642D01*
X137699998Y-83471785D01*
X137699998Y-82186071D01*
X136699998Y-83686071D02*
X136842855Y-83614642D01*
X136914283Y-83471785D01*
X136914283Y-82186071D01*
X136199997Y-83614642D02*
X136057140Y-83686071D01*
X135771426Y-83686071D01*
X135628569Y-83614642D01*
X135557140Y-83471785D01*
X135557140Y-83400357D01*
X135628569Y-83257500D01*
X135771426Y-83186071D01*
X135985712Y-83186071D01*
X136128569Y-83114642D01*
X136199997Y-82971785D01*
X136199997Y-82900357D01*
X136128569Y-82757500D01*
X135985712Y-82686071D01*
X135771426Y-82686071D01*
X135628569Y-82757500D01*
X133771426Y-83686071D02*
X133771426Y-82186071D01*
X133771426Y-82757500D02*
X133628569Y-82686071D01*
X133342855Y-82686071D01*
X133199997Y-82757500D01*
X133128569Y-82828928D01*
X133057140Y-82971785D01*
X133057140Y-83400357D01*
X133128569Y-83543214D01*
X133199997Y-83614642D01*
X133342855Y-83686071D01*
X133628569Y-83686071D01*
X133771426Y-83614642D01*
X132557140Y-82686071D02*
X132199997Y-83686071D01*
X131842855Y-82686071D02*
X132199997Y-83686071D01*
X132342855Y-84043214D01*
X132414283Y-84114642D01*
X132557140Y-84186071D01*
X130199997Y-83614642D02*
X129985712Y-83686071D01*
X129628569Y-83686071D01*
X129485712Y-83614642D01*
X129414283Y-83543214D01*
X129342855Y-83400357D01*
X129342855Y-83257500D01*
X129414283Y-83114642D01*
X129485712Y-83043214D01*
X129628569Y-82971785D01*
X129914283Y-82900357D01*
X130057140Y-82828928D01*
X130128569Y-82757500D01*
X130199997Y-82614642D01*
X130199997Y-82471785D01*
X130128569Y-82328928D01*
X130057140Y-82257500D01*
X129914283Y-82186071D01*
X129557140Y-82186071D01*
X129342855Y-82257500D01*
X128914283Y-82686071D02*
X128342855Y-82686071D01*
X128699997Y-82186071D02*
X128699997Y-83471785D01*
X128628569Y-83614642D01*
X128485712Y-83686071D01*
X128342855Y-83686071D01*
X127199997Y-82686071D02*
X127199997Y-83686071D01*
X127842855Y-82686071D02*
X127842855Y-83471785D01*
X127771426Y-83614642D01*
X127628569Y-83686071D01*
X127414283Y-83686071D01*
X127271426Y-83614642D01*
X127199997Y-83543214D01*
X125842855Y-83686071D02*
X125842855Y-82900357D01*
X125914283Y-82757500D01*
X126057140Y-82686071D01*
X126342855Y-82686071D01*
X126485712Y-82757500D01*
X125842855Y-83614642D02*
X125985712Y-83686071D01*
X126342855Y-83686071D01*
X126485712Y-83614642D01*
X126557140Y-83471785D01*
X126557140Y-83328928D01*
X126485712Y-83186071D01*
X126342855Y-83114642D01*
X125985712Y-83114642D01*
X125842855Y-83043214D01*
X125128569Y-83686071D02*
X125128569Y-82686071D01*
X125128569Y-82971785D02*
X125057140Y-82828928D01*
X124985712Y-82757500D01*
X124842855Y-82686071D01*
X124699997Y-82686071D01*
X124414283Y-82686071D02*
X123842855Y-82686071D01*
X124199997Y-82186071D02*
X124199997Y-83471785D01*
X124128569Y-83614642D01*
X123985712Y-83686071D01*
X123842855Y-83686071D01*
X122199997Y-83686071D02*
X122199997Y-82186071D01*
X121628569Y-82186071D01*
X121485712Y-82257500D01*
X121414283Y-82328928D01*
X121342855Y-82471785D01*
X121342855Y-82686071D01*
X121414283Y-82828928D01*
X121485712Y-82900357D01*
X121628569Y-82971785D01*
X122199997Y-82971785D01*
X120699997Y-83686071D02*
X120699997Y-82686071D01*
X120699997Y-82186071D02*
X120771426Y-82257500D01*
X120699997Y-82328928D01*
X120628569Y-82257500D01*
X120699997Y-82186071D01*
X120699997Y-82328928D01*
X120199997Y-82686071D02*
X119628569Y-82686071D01*
X119985712Y-82186071D02*
X119985712Y-83471785D01*
X119914283Y-83614642D01*
X119771426Y-83686071D01*
X119628569Y-83686071D01*
X119342855Y-82686071D02*
X118771426Y-82686071D01*
X119128569Y-82186071D02*
X119128569Y-83471785D01*
X119057140Y-83614642D01*
X118914283Y-83686071D01*
X118771426Y-83686071D01*
X117628569Y-83686071D02*
X117628569Y-82900357D01*
X117699997Y-82757500D01*
X117842855Y-82686071D01*
X118128569Y-82686071D01*
X118271426Y-82757500D01*
X117628569Y-83614642D02*
X117771426Y-83686071D01*
X118128569Y-83686071D01*
X118271426Y-83614642D01*
X118342855Y-83471785D01*
X118342855Y-83328928D01*
X118271426Y-83186071D01*
X118128569Y-83114642D01*
X117771426Y-83114642D01*
X117628569Y-83043214D01*
X117057140Y-82686071D02*
X116771426Y-83686071D01*
X116485712Y-82971785D01*
X116199997Y-83686071D01*
X115914283Y-82686071D01*
X114699997Y-83686071D02*
X114699997Y-82900357D01*
X114771426Y-82757500D01*
X114914283Y-82686071D01*
X115199997Y-82686071D01*
X115342855Y-82757500D01*
X114699997Y-83614642D02*
X114842855Y-83686071D01*
X115199997Y-83686071D01*
X115342855Y-83614642D01*
X115414283Y-83471785D01*
X115414283Y-83328928D01*
X115342855Y-83186071D01*
X115199997Y-83114642D01*
X114842855Y-83114642D01*
X114699997Y-83043214D01*
X114128569Y-82686071D02*
X113771426Y-83686071D01*
X113414283Y-82686071D02*
X113771426Y-83686071D01*
X113914283Y-84043214D01*
X113985712Y-84114642D01*
X114128569Y-84186071D01*
X112842855Y-83543214D02*
X112771426Y-83614642D01*
X112842855Y-83686071D01*
X112914283Y-83614642D01*
X112842855Y-83543214D01*
X112842855Y-83686071D01*
M02*
