M48
; DRILL file {KiCad (5.99.0-8941-ge2f8b1a4b1)} date 03/10/21 18:45:43
; FORMAT={-:-/ absolute / inch / decimal}
; #@! TF.CreationDate,2021-03-10T18:45:43+13:00
; #@! TF.GenerationSoftware,Kicad,Pcbnew,(5.99.0-8941-ge2f8b1a4b1)
; #@! TF.FileFunction,Plated,1,2,PTH
FMAT,2
INCH
T1C0.0157
T2C0.0197
T3C0.0236
T4C0.0295
T5C0.0394
T6C0.1969
T7C0.2520
%
G90
G05
T1
X2.3031Y-3.4646
X2.3031Y-3.5315
X3.122Y-3.9843
X3.1457Y-3.6181
X3.2165Y-3.8346
X3.248Y-3.5748
X3.315Y-3.2874
X3.378Y-3.4587
X3.4213Y-3.3996
X3.52Y-3.68
X3.6299Y-3.4134
X3.7402Y-3.5669
X3.7835Y-3.937
X3.7992Y-3.8504
X3.8307Y-4.0906
X3.8425Y-3.8858
X3.8819Y-3.8504
X4.0315Y-3.1929
X4.126Y-3.1772
X8.1024Y-3.9646
X8.1024Y-4.0118
X8.1024Y-4.063
X8.1929Y-3.122
X8.252Y-3.8386
X8.252Y-3.8858
X8.252Y-3.9331
X8.2795Y-3.4094
X8.2795Y-3.4882
X8.3189Y-3.6732
X8.4524Y-3.6428
X8.5079Y-4.0197
X8.5551Y-3.8858
X8.5906Y-3.9173
X8.7559Y-3.4882
X8.8268Y-3.7047
X8.8819Y-3.2913
X8.8898Y-3.9882
X8.9213Y-3.1969
X8.9882Y-3.9882
X8.9921Y-3.8228
X8.9921Y-3.8701
X9.0472Y-3.7795
X9.0472Y-3.8228
X9.0472Y-3.8701
X9.0472Y-3.9724
X9.0472Y-4.0236
X9.0472Y-4.0748
X9.0669Y-3.7323
X9.0709Y-3.9173
X9.0945Y-3.7756
X9.0945Y-3.8228
X9.0945Y-3.8701
X9.0945Y-3.9724
X9.0945Y-4.0236
X9.0945Y-4.0748
X9.6732Y-3.4606
X9.6732Y-3.5236
T2
X1.7717Y-3.1496
X1.7717Y-3.2283
X1.7717Y-3.3071
X1.7717Y-3.3858
X1.7717Y-3.4646
X1.7717Y-3.5433
X1.7717Y-3.622
X1.7717Y-3.7008
X1.7717Y-3.7795
X1.7717Y-3.8583
X1.7717Y-3.937
X1.7717Y-4.0157
X1.7717Y-4.0945
X1.7717Y-4.1732
X1.8504Y-3.1496
X1.8504Y-4.1732
X1.9291Y-3.1496
X1.9291Y-4.1732
X2.0079Y-3.1496
X2.0079Y-4.1732
X2.0866Y-3.1496
X2.0866Y-4.1732
X2.1654Y-3.1496
X2.1654Y-4.1732
X2.2441Y-3.1496
X2.2441Y-4.1732
X2.3228Y-3.1496
X2.3228Y-4.1732
X2.4016Y-3.1496
X2.4016Y-4.1732
X2.4803Y-3.1496
X2.4803Y-4.1732
X2.5591Y-3.1496
X2.5591Y-4.1732
X2.6378Y-3.1496
X2.6378Y-4.1732
X2.7323Y-3.1496
X2.7598Y-4.1732
X2.8307Y-3.1575
T3
X4.3553Y-3.6614
X4.4115Y-3.5257
X4.4115Y-3.7971
X4.5472Y-3.4695
X4.5472Y-3.8533
X4.683Y-3.5257
X4.683Y-3.7971
X4.7392Y-3.6614
X5.812Y-3.6614
X5.8682Y-3.5257
X5.8682Y-3.7971
X6.0039Y-3.4695
X6.0039Y-3.8533
X6.1397Y-3.5257
X6.1397Y-3.7971
X6.1959Y-3.6614
X7.2687Y-3.6614
X7.3249Y-3.5257
X7.3249Y-3.7971
X7.4606Y-3.4695
X7.4606Y-3.8533
X7.5963Y-3.5257
X7.5963Y-3.7971
X7.6526Y-3.6614
T4
X3.6575Y-3.2303
X3.7362Y-3.2303
X3.8701Y-3.6988
X3.9488Y-3.6988
X8.0709Y-3.626
X8.1496Y-3.626
X8.6102Y-3.2283
X8.689Y-3.2283
T5
X3.2843Y-3.7697
X3.2843Y-3.8697
X3.3843Y-3.7697
X3.3843Y-3.8697
X3.4843Y-3.7697
X3.4843Y-3.8697
X8.4872Y-3.4502
X8.4872Y-3.5502
X8.5872Y-3.4502
X8.5872Y-3.5502
X8.6872Y-3.4502
X8.6872Y-3.5502
T6
X6.0039Y-3.6614
T7
X4.5472Y-3.6614
X7.4606Y-3.6614
T0
M30
